<?xml version="1.0" encoding="UTF-8" standalone="no"?>
<svg
   width="800"
   height="600"
   overflow="hidden"
   version="1.1"
   id="svg528"
   sodipodi:docname="2023-10-10_isaqb_t3_context.svg"
   inkscape:version="1.2.2 (732a01da63, 2022-12-09)"
   xmlns:inkscape="http://www.inkscape.org/namespaces/inkscape"
   xmlns:sodipodi="http://sodipodi.sourceforge.net/DTD/sodipodi-0.dtd"
   xmlns="http://www.w3.org/2000/svg"
   xmlns:svg="http://www.w3.org/2000/svg">
  <defs
     id="defs532" />
  <sodipodi:namedview
     id="namedview530"
     pagecolor="#505050"
     bordercolor="#eeeeee"
     borderopacity="1"
     inkscape:showpageshadow="0"
     inkscape:pageopacity="0"
     inkscape:pagecheckerboard="0"
     inkscape:deskcolor="#505050"
     showgrid="false"
     inkscape:zoom="1.6672252"
     inkscape:cx="593.80101"
     inkscape:cy="455.84724"
     inkscape:window-width="3840"
     inkscape:window-height="2054"
     inkscape:window-x="-11"
     inkscape:window-y="-11"
     inkscape:window-maximized="1"
     inkscape:current-layer="svg528" />
  <g
     id="g1791"
     transform="translate(-194.6606,-64.901305)">
    <text
       fill="#404040"
       font-family="'Arial Narrow', 'Arial Narrow_MSFontService', sans-serif"
       font-weight="700"
       font-stretch="condensed"
       font-size="16px"
       id="text390"
       x="636.23047"
       y="239.81146">T3</text>
    <text
       fill="#404040"
       font-family="'Arial Narrow', 'Arial Narrow_MSFontService', sans-serif"
       font-weight="700"
       font-stretch="condensed"
       font-size="16px"
       id="text392"
       x="655.23047"
       y="239.81146">T</text>
    <text
       fill="#404040"
       font-family="'Arial Narrow', 'Arial Narrow_MSFontService', sans-serif"
       font-weight="400"
       font-stretch="condensed"
       font-size="16px"
       id="text394"
       x="663.23047"
       y="239.81146">rainer</text>
    <text
       fill="#404040"
       font-family="'Arial Narrow', 'Arial Narrow_MSFontService', sans-serif"
       font-weight="700"
       font-stretch="condensed"
       font-size="16px"
       id="text396"
       x="625.98047"
       y="421.81146">T3</text>
    <text
       fill="#404040"
       font-family="'Arial Narrow', 'Arial Narrow_MSFontService', sans-serif"
       font-weight="700"
       font-stretch="condensed"
       font-size="16px"
       id="text398"
       x="644.98047"
       y="421.81146">P</text>
    <text
       fill="#404040"
       font-family="'Arial Narrow', 'Arial Narrow_MSFontService', sans-serif"
       font-weight="400"
       font-stretch="condensed"
       font-size="16px"
       id="text400"
       x="653.81348"
       y="421.81146">articipant</text>
    <text
       fill="#404040"
       font-family="'Arial Narrow', 'Arial Narrow_MSFontService', sans-serif"
       font-weight="700"
       font-stretch="condensed"
       font-size="16px"
       id="text402"
       x="623.34045"
       y="606.81146">C</text>
    <text
       fill="#404040"
       font-family="'Arial Narrow', 'Arial Narrow_MSFontService', sans-serif"
       font-weight="400"
       font-stretch="condensed"
       font-size="16px"
       id="text404"
       x="632.84045"
       y="606.81146">PSA</text>
    <text
       fill="#404040"
       font-family="'Arial Narrow', 'Arial Narrow_MSFontService', sans-serif"
       font-weight="700"
       font-stretch="condensed"
       font-size="16px"
       id="text406"
       x="662.28748"
       y="606.81146">T</text>
    <text
       fill="#404040"
       font-family="'Arial Narrow', 'Arial Narrow_MSFontService', sans-serif"
       font-weight="400"
       font-stretch="condensed"
       font-size="16px"
       id="text408"
       x="670.28748"
       y="606.81146">raining</text>
    <text
       fill="#404040"
       font-family="'Arial Narrow', 'Arial Narrow_MSFontService', sans-serif"
       font-weight="700"
       font-stretch="condensed"
       font-size="16px"
       id="text410"
       x="635.48047"
       y="625.81146">P</text>
    <text
       fill="#404040"
       font-family="'Arial Narrow', 'Arial Narrow_MSFontService', sans-serif"
       font-weight="400"
       font-stretch="condensed"
       font-size="16px"
       id="text412"
       x="644.31348"
       y="625.81146">articipant</text>
    <path
       d="m 775.17347,109.77846 c 0,-4.952 4.015,-8.967 8.967,-8.967 h 191.066 c 4.952,0 8.967,4.015 8.967,8.967 v 96.066 c 0,4.952 -4.015,8.967 -8.967,8.967 h -191.066 c -4.952,0 -8.967,-4.015 -8.967,-8.967 z"
       fill="#ffc000"
       fill-rule="evenodd"
       id="path414" />
    <text
       fill="#ffffff"
       font-family="'Arial Narrow', 'Arial Narrow_MSFontService', sans-serif"
       font-weight="400"
       font-stretch="condensed"
       font-size="19px"
       id="text416"
       x="797.08545"
       y="152.81146">A person delivering a T3</text>
    <text
       fill="#ffffff"
       font-family="'Arial Narrow', 'Arial Narrow_MSFontService', sans-serif"
       font-weight="400"
       font-stretch="condensed"
       font-size="19px"
       id="text418"
       x="852.28546"
       y="175.81146">training.</text>
    <path
       d="m 775.17347,292.70046 c 0,-4.909 3.98,-8.889 8.889,-8.889 h 191.222 c 4.909,0 8.889,3.98 8.889,8.889 v 95.222 c 0,4.909 -3.98,8.889 -8.889,8.889 h -191.222 c -4.909,0 -8.889,-3.98 -8.889,-8.889 z"
       fill="#404040"
       fill-rule="evenodd"
       id="path420" />
    <text
       fill="#ffffff"
       font-family="'Arial Narrow', 'Arial Narrow_MSFontService', sans-serif"
       font-weight="400"
       font-stretch="condensed"
       font-size="19px"
       id="text422"
       x="791.36847"
       y="313.81146">A person participating in a</text>
    <text
       fill="#ffffff"
       font-family="'Arial Narrow', 'Arial Narrow_MSFontService', sans-serif"
       font-weight="400"
       font-stretch="condensed"
       font-size="19px"
       id="text424"
       x="814.78247"
       y="336.81146">T3 training with the</text>
    <text
       fill="#ffffff"
       font-family="'Arial Narrow', 'Arial Narrow_MSFontService', sans-serif"
       font-weight="400"
       font-stretch="condensed"
       font-size="19px"
       id="text426"
       x="795.52844"
       y="358.81146">intention to deliver better</text>
    <text
       fill="#ffffff"
       font-family="'Arial Narrow', 'Arial Narrow_MSFontService', sans-serif"
       font-weight="400"
       font-stretch="condensed"
       font-size="19px"
       id="text428"
       x="825.94849"
       y="380.81146">CPSA trainings.</text>
    <path
       d="m 775.17347,486.70046 c 0,-4.909 3.98,-8.889 8.889,-8.889 h 191.222 c 4.909,0 8.889,3.98 8.889,8.889 v 95.222 c 0,4.909 -3.98,8.889 -8.889,8.889 h -191.222 c -4.909,0 -8.889,-3.98 -8.889,-8.889 z"
       fill="#7f7f7f"
       fill-rule="evenodd"
       id="path430" />
    <text
       fill="#ffffff"
       font-family="'Arial Narrow', 'Arial Narrow_MSFontService', sans-serif"
       font-weight="400"
       font-stretch="condensed"
       font-size="19px"
       id="text432"
       x="791.36847"
       y="529.81146">A person participating in a</text>
    <text
       fill="#ffffff"
       font-family="'Arial Narrow', 'Arial Narrow_MSFontService', sans-serif"
       font-weight="400"
       font-stretch="condensed"
       font-size="19px"
       id="text434"
       x="829.78247"
       y="552.81146">CPSA training.</text>
    <path
       d="m 249.03247,556.81846 c -2.779,0 -14.012,-0.007 -16.792,-0.007 -2.154,0 -4.182,0.831 -5.707,2.339 -1.525,1.506 -2.363,3.503 -2.36,5.625 l 0.011,7.612 c 0.002,1.234 0.702,2.365 1.815,2.93 4.504,2.286 9.579,3.494 14.674,3.494 5.096,0 10.17,-1.208 14.675,-3.494 1.112,-0.565 1.813,-1.696 1.815,-2.93 l 0.01,-7.605 c 0.003,-2.099 -0.835,-4.083 -2.359,-5.589 -1.527,-1.509 -3.635,-2.375 -5.782,-2.375 z"
       fill-rule="evenodd"
       id="path436" />
    <path
       d="m 240.67347,553.81146 c 6.342,0 11.5,-5.384 11.5,-12 0,-6.616 -5.159,-12 -11.5,-12 -6.341,0 -11.5,5.384 -11.5,12 0,6.616 5.158,12 11.5,12 z"
       fill-rule="evenodd"
       id="path438" />
    <path
       d="m 289.03247,556.81846 c -2.778,0 -14.013,-0.007 -16.792,-0.007 -2.154,0 -4.181,0.831 -5.707,2.339 -1.525,1.506 -2.362,3.503 -2.36,5.625 l 0.011,7.612 c 0.002,1.234 0.702,2.365 1.815,2.93 4.505,2.286 9.579,3.494 14.674,3.494 5.095,0 10.169,-1.208 14.674,-3.494 1.112,-0.565 1.813,-1.696 1.815,-2.93 l 0.011,-7.605 c 0.003,-2.099 -0.835,-4.083 -2.36,-5.589 -1.527,-1.509 -3.634,-2.375 -5.781,-2.375 z"
       fill-rule="evenodd"
       id="path440" />
    <path
       d="m 269.17347,541.81146 c 0,6.617 5.383,12 12,12 6.617,0 12,-5.384 12,-12 0,-6.616 -5.383,-12 -12,-12 -6.617,0 -12,5.383 -12,12 z"
       fill-rule="evenodd"
       id="path442" />
    <path
       d="m 335.81347,559.19346 c -1.527,-1.509 -3.635,-2.375 -5.781,-2.375 -2.779,0 -14.012,-0.007 -16.793,-0.007 -2.154,0 -4.181,0.831 -5.707,2.339 -1.524,1.506 -2.363,3.503 -2.359,5.625 l 0.01,7.612 c 0.002,1.234 0.703,2.365 1.816,2.93 4.504,2.286 9.578,3.494 14.674,3.494 5.095,0 10.17,-1.208 14.674,-3.494 1.113,-0.565 1.814,-1.696 1.816,-2.93 l 0.01,-7.605 c 0.003,-2.099 -0.836,-4.083 -2.36,-5.589 z"
       fill-rule="evenodd"
       id="path444" />
    <path
       d="m 309.17347,541.81146 c 0,6.617 5.383,12 12,12 6.617,0 12,-5.384 12,-12 0,-6.616 -5.383,-12 -12,-12 -6.617,0 -12,5.383 -12,12 z"
       fill-rule="evenodd"
       id="path446" />
    <path
       d="m 241.49747,476.88746 h 1.33 v 44.611 c 0,1.83 1.489,3.313 3.325,3.313 h 70.042 c 1.836,0 3.325,-1.483 3.325,-3.313 v -44.611 h 1.329 c 1.837,0 3.325,-1.483 3.325,-3.313 0,-1.829 -1.488,-3.313 -3.325,-3.313 h -36.35 v -1.137 c 0,-1.83 -1.489,-3.313 -3.325,-3.313 -1.836,0 -3.325,1.483 -3.325,3.313 v 1.137 h -36.351 c -1.836,0 -3.324,1.484 -3.324,3.313 0,1.83 1.488,3.313 3.324,3.313 z"
       fill-rule="evenodd"
       id="path448" />
    <path
       d="m 249.03247,374.81846 c -2.779,0 -14.012,-0.007 -16.792,-0.007 -2.154,0 -4.182,0.831 -5.707,2.339 -1.525,1.506 -2.363,3.503 -2.36,5.625 l 0.011,7.612 c 0.002,1.234 0.702,2.365 1.815,2.93 4.504,2.286 9.579,3.494 14.674,3.494 5.096,0 10.17,-1.208 14.675,-3.494 1.112,-0.565 1.813,-1.696 1.815,-2.93 l 0.01,-7.605 c 0.003,-2.099 -0.835,-4.083 -2.359,-5.589 -1.527,-1.509 -3.635,-2.375 -5.782,-2.375 z"
       fill="#ffc000"
       fill-rule="evenodd"
       id="path450" />
    <path
       d="m 240.67347,371.81146 c 6.342,0 11.5,-5.384 11.5,-12 0,-6.616 -5.159,-12 -11.5,-12 -6.341,0 -11.5,5.384 -11.5,12 0,6.616 5.158,12 11.5,12 z"
       fill="#ffc000"
       fill-rule="evenodd"
       id="path452" />
    <path
       d="m 289.03247,374.81846 c -2.778,0 -14.013,-0.007 -16.792,-0.007 -2.154,0 -4.181,0.831 -5.707,2.339 -1.525,1.506 -2.362,3.503 -2.36,5.625 l 0.011,7.612 c 0.002,1.234 0.702,2.365 1.815,2.93 4.505,2.286 9.579,3.494 14.674,3.494 5.095,0 10.169,-1.208 14.674,-3.494 1.112,-0.565 1.813,-1.696 1.815,-2.93 l 0.011,-7.605 c 0.003,-2.099 -0.835,-4.083 -2.36,-5.589 -1.527,-1.509 -3.634,-2.375 -5.781,-2.375 z"
       fill="#ffc000"
       fill-rule="evenodd"
       id="path454" />
    <path
       d="m 269.17347,359.81146 c 0,6.617 5.383,12 12,12 6.617,0 12,-5.384 12,-12 0,-6.616 -5.383,-12 -12,-12 -6.617,0 -12,5.383 -12,12 z"
       fill="#ffc000"
       fill-rule="evenodd"
       id="path456" />
    <path
       d="m 335.81347,377.19346 c -1.527,-1.509 -3.635,-2.375 -5.781,-2.375 -2.779,0 -14.012,-0.007 -16.793,-0.007 -2.154,0 -4.181,0.831 -5.707,2.339 -1.524,1.506 -2.363,3.503 -2.359,5.625 l 0.01,7.612 c 0.002,1.234 0.703,2.365 1.816,2.93 4.504,2.286 9.578,3.494 14.674,3.494 5.095,0 10.17,-1.208 14.674,-3.494 1.113,-0.565 1.814,-1.696 1.816,-2.93 l 0.01,-7.605 c 0.003,-2.099 -0.836,-4.083 -2.36,-5.589 z"
       fill="#ffc000"
       fill-rule="evenodd"
       id="path458" />
    <path
       d="m 309.17347,359.81146 c 0,6.617 5.383,12 12,12 6.617,0 12,-5.384 12,-12 0,-6.616 -5.383,-12 -12,-12 -6.617,0 -12,5.383 -12,12 z"
       fill="#ffc000"
       fill-rule="evenodd"
       id="path460" />
    <path
       d="m 241.49747,294.88746 h 1.33 v 44.611 c 0,1.83 1.489,3.313 3.325,3.313 h 70.042 c 1.836,0 3.325,-1.483 3.325,-3.313 v -44.611 h 1.329 c 1.837,0 3.325,-1.483 3.325,-3.313 0,-1.829 -1.488,-3.313 -3.325,-3.313 h -36.35 v -1.137 c 0,-1.83 -1.489,-3.313 -3.325,-3.313 -1.836,0 -3.325,1.483 -3.325,3.313 v 1.137 h -36.351 c -1.836,0 -3.324,1.484 -3.324,3.313 0,1.83 1.488,3.313 3.324,3.313 z"
       fill="#ffc000"
       fill-rule="evenodd"
       id="path462" />
    <text
       fill="#404040"
       font-family="'Arial Narrow', 'Arial Narrow_MSFontService', sans-serif"
       font-weight="700"
       font-stretch="condensed"
       font-size="16px"
       id="text464"
       x="204.86647"
       y="422.81146">T</text>
    <text
       fill="#404040"
       font-family="'Arial Narrow', 'Arial Narrow_MSFontService', sans-serif"
       font-weight="400"
       font-stretch="condensed"
       font-size="16px"
       id="text466"
       x="212.86646"
       y="422.81146">rain</text>
    <text
       fill="#404040"
       font-family="'Arial Narrow', 'Arial Narrow_MSFontService', sans-serif"
       font-weight="700"
       font-stretch="condensed"
       font-size="16px"
       id="text468"
       x="238.36646"
       y="422.81146">T</text>
    <text
       fill="#404040"
       font-family="'Arial Narrow', 'Arial Narrow_MSFontService', sans-serif"
       font-weight="400"
       font-stretch="condensed"
       font-size="16px"
       id="text470"
       x="246.36646"
       y="422.81146">he</text>
    <text
       fill="#404040"
       font-family="'Arial Narrow', 'Arial Narrow_MSFontService', sans-serif"
       font-weight="700"
       font-stretch="condensed"
       font-size="16px"
       id="text472"
       x="264.69946"
       y="422.81146">T</text>
    <text
       fill="#404040"
       font-family="'Arial Narrow', 'Arial Narrow_MSFontService', sans-serif"
       font-weight="400"
       font-stretch="condensed"
       font-size="16px"
       id="text474"
       x="272.69946"
       y="422.81146">rainer</text>
    <text
       fill="#404040"
       font-family="'Arial Narrow', 'Arial Narrow_MSFontService', sans-serif"
       font-weight="700"
       font-stretch="condensed"
       font-size="16px"
       id="text476"
       x="309.86646"
       y="422.81146">T</text>
    <text
       fill="#404040"
       font-family="'Arial Narrow', 'Arial Narrow_MSFontService', sans-serif"
       font-weight="400"
       font-stretch="condensed"
       font-size="16px"
       id="text478"
       x="317.86646"
       y="422.81146">raining</text>
    <text
       fill="#404040"
       font-family="'Arial Narrow', 'Arial Narrow_MSFontService', sans-serif"
       font-weight="700"
       font-stretch="condensed"
       font-size="16px"
       id="text480"
       x="240.01247"
       y="604.81146">CPSA</text>
    <text
       fill="#404040"
       font-family="'Arial Narrow', 'Arial Narrow_MSFontService', sans-serif"
       font-weight="400"
       font-stretch="condensed"
       font-size="16px"
       id="text482"
       x="279.87247"
       y="604.81146">Training</text>
    <path
       d="m 569.13179,206.97581 -2.67129,1.36536 1.36536,2.67129 2.67129,-1.36535 z m -5.34258,2.73072 -2.67129,1.36536 1.36536,2.67129 2.67129,-1.36536 z m -5.34254,2.73072 -2.6713,1.36536 1.3653,2.67129 2.6713,-1.36536 z m -5.3426,2.73072 -2.6713,1.36536 1.3653,2.67133 2.6713,-1.3654 z m -5.3426,2.73072 -2.6713,1.36537 1.3654,2.6713 2.6713,-1.3654 z m -5.3426,2.73077 -2.6713,1.3653 1.3654,2.6713 2.6713,-1.3654 z m -5.3426,2.7307 -2.6713,1.3653 1.3654,2.6713 2.6713,-1.3653 z m -5.3425,2.7307 -2.6713,1.3654 1.3653,2.6712 2.6713,-1.3653 z m -5.3426,2.7307 -2.6713,1.3654 1.3653,2.6713 2.6713,-1.3654 z m -5.3426,2.7307 -2.6713,1.3654 1.3654,2.6713 2.6713,-1.3654 z m -5.3426,2.7307 -2.6713,1.3654 1.3654,2.6713 2.6713,-1.3654 z m -5.3426,2.7308 -2.6713,1.3653 1.3654,2.6713 2.6713,-1.3653 z m -5.3425,2.7307 -2.6713,1.3653 1.3653,2.6713 2.6713,-1.3653 z m -5.3426,2.7307 -2.6713,1.3654 1.3653,2.6713 2.6713,-1.3654 z m -5.3426,2.7307 -2.6713,1.3654 1.3653,2.6713 2.6713,-1.3654 z m -5.3426,2.7308 -2.6713,1.3653 1.3654,2.6713 2.6713,-1.3654 z m -5.3426,2.7307 -2.6713,1.3653 1.3654,2.6713 2.6713,-1.3653 z m -5.3426,2.7307 -2.6713,1.3654 1.3654,2.6712 2.6713,-1.3653 z m -5.3426,2.7307 -2.6712,1.3654 1.3653,2.6713 2.6713,-1.3654 z m -5.3428,2.7307 -2.671,1.3654 1.365,2.6713 2.672,-1.3654 z m -5.342,2.7308 -2.672,1.3653 1.366,2.6713 2.671,-1.3653 z m -5.343,2.7307 -2.671,1.3653 1.365,2.6713 2.671,-1.3653 z m -5.342,2.7307 -2.672,1.3654 1.366,2.6713 2.671,-1.3654 z m -5.343,2.7307 -2.671,1.3654 1.365,2.6713 2.671,-1.3654 z m -5.343,2.7308 -2.671,1.3653 1.365,2.6713 2.672,-1.3654 z m -5.342,2.7307 -2.671,1.3653 1.365,2.6713 2.671,-1.3653 z m -5.343,2.7307 -2.671,1.3654 1.365,2.6712 2.672,-1.3653 z m -5.342,2.7307 -2.672,1.3654 1.366,2.6713 2.671,-1.3654 z m -5.343,2.7307 -2.671,1.3654 1.365,2.6713 2.671,-1.3654 z m -5.343,2.7307 -2.671,1.3654 1.366,2.6713 2.671,-1.3654 z m -5.342,2.7308 -2.671,1.3653 1.365,2.6713 2.671,-1.3654 z m -5.343,2.7307 -2.671,1.3653 1.365,2.6713 2.672,-1.3653 z m -5.342,2.7307 -2.672,1.3654 1.366,2.6712 2.671,-1.3653 z m -5.343,2.7307 -2.671,1.3654 1.365,2.6713 2.672,-1.3654 z m -5.342,2.7307 -2.672,1.3654 1.366,2.6713 2.671,-1.3654 z m -5.343,2.7307 -0.507,0.2592 1.365,2.6713 0.507,-0.2592 z m 4.539,-7.9864 -7.013,10.9355 12.971,0.7214 c 0.827,0.046 1.535,-0.5872 1.581,-1.4143 0.046,-0.8272 -0.587,-1.535 -1.415,-1.581 l -10.403,-0.5787 1.18,2.3074 5.624,-8.7708 c 0.447,-0.6974 0.244,-1.6252 -0.453,-2.0724 -0.697,-0.4472 -1.625,-0.2444 -2.072,0.4529 z"
       fill="#ffc000"
       id="path484" />
    <path
       d="m 569.13179,382.97581 -2.67129,1.36536 1.36536,2.67129 2.67129,-1.36535 z m -5.34258,2.73072 -2.67129,1.36536 1.36536,2.67129 2.67129,-1.36536 z m -5.34254,2.73072 -2.6713,1.36536 1.3653,2.67129 2.6713,-1.36536 z m -5.3426,2.73072 -2.6713,1.36536 1.3653,2.67133 2.6713,-1.3654 z m -5.3426,2.73072 -2.6713,1.36537 1.3654,2.6713 2.6713,-1.3654 z m -5.3426,2.73077 -2.6713,1.3653 1.3654,2.6713 2.6713,-1.3654 z m -5.3426,2.7307 -2.6713,1.3653 1.3654,2.6713 2.6713,-1.3653 z m -5.3425,2.7307 -2.6713,1.3654 1.3653,2.6712 2.6713,-1.3653 z m -5.3426,2.7307 -2.6713,1.3654 1.3653,2.6713 2.6713,-1.3654 z m -5.3426,2.7307 -2.6713,1.3654 1.3654,2.6713 2.6713,-1.3654 z m -5.3426,2.7307 -2.6713,1.3654 1.3654,2.6713 2.6713,-1.3654 z m -5.3426,2.7308 -2.6713,1.3653 1.3654,2.6713 2.6713,-1.3653 z m -5.3425,2.7307 -2.6713,1.3653 1.3653,2.6713 2.6713,-1.3653 z m -5.3426,2.7307 -2.6713,1.3654 1.3653,2.6713 2.6713,-1.3654 z m -5.3426,2.7307 -2.6713,1.3654 1.3653,2.6713 2.6713,-1.3654 z m -5.3426,2.7308 -2.6713,1.3653 1.3654,2.6713 2.6713,-1.3654 z m -5.3426,2.7307 -2.6713,1.3653 1.3654,2.6713 2.6713,-1.3653 z m -5.3426,2.7307 -2.6713,1.3654 1.3654,2.6712 2.6713,-1.3653 z m -5.3426,2.7307 -2.6712,1.3654 1.3653,2.6713 2.6713,-1.3654 z m -5.3428,2.7307 -2.671,1.3654 1.365,2.6713 2.672,-1.3654 z m -5.342,2.7308 -2.672,1.3653 1.366,2.6713 2.671,-1.3653 z m -5.343,2.7307 -2.671,1.3653 1.365,2.6713 2.671,-1.3653 z m -5.342,2.7307 -2.672,1.3654 1.366,2.6713 2.671,-1.3654 z m -5.343,2.7307 -2.671,1.3654 1.365,2.6713 2.671,-1.3654 z m -5.343,2.7308 -2.671,1.3653 1.365,2.6713 2.672,-1.3654 z m -5.342,2.7307 -2.671,1.3653 1.365,2.6713 2.671,-1.3653 z m -5.343,2.7307 -2.671,1.3654 1.365,2.6712 2.672,-1.3653 z m -5.342,2.7307 -2.672,1.3654 1.366,2.6713 2.671,-1.3654 z m -5.343,2.7307 -2.671,1.3654 1.365,2.6713 2.671,-1.3654 z m -5.343,2.7307 -2.671,1.3654 1.366,2.6713 2.671,-1.3654 z m -5.342,2.7308 -2.671,1.3653 1.365,2.6713 2.671,-1.3654 z m -5.343,2.7307 -2.671,1.3653 1.365,2.6713 2.672,-1.3653 z m -5.342,2.7307 -2.672,1.3654 1.366,2.6712 2.671,-1.3653 z m -5.343,2.7307 -2.671,1.3654 1.365,2.6713 2.672,-1.3654 z m -5.342,2.7307 -2.672,1.3654 1.366,2.6713 2.671,-1.3654 z m -5.343,2.7307 -0.507,0.2592 1.365,2.6713 0.507,-0.2592 z m 4.539,-7.9864 -7.013,10.9355 12.971,0.7214 c 0.827,0.046 1.535,-0.5872 1.581,-1.4143 0.046,-0.8272 -0.587,-1.535 -1.415,-1.581 l -10.403,-0.5787 1.18,2.3074 5.624,-8.7708 c 0.447,-0.6974 0.244,-1.6252 -0.453,-2.0724 -0.697,-0.4472 -1.625,-0.2444 -2.072,0.4529 z"
       fill="#404040"
       id="path486" />
    <path
       d="m 571.64947,346.81146 h -3 v 3 h 3 z m -6,0 -3,10e-6 v 3 l 3,-10e-6 z m -6,10e-6 h -3 v 3 h 3 z m -6,0 h -3 v 3 h 3 z m -6,0 -3,1e-5 v 2.99999 h 3 z m -6,1e-5 h -3 v 3 h 3 z m -6,0 h -3 v 3 h 3 z m -6,0 -3,10e-6 v 2.99999 h 3 z m -6,10e-6 h -3 v 3 h 3 z m -6,0 h -3 v 3 h 3 z m -6,0 -3,1e-5 v 2.99999 h 3 z m -6,1e-5 h -3 v 3 h 3 z m -6,0 h -3 v 3 h 3 z m -6,0 -3,10e-6 v 2.99999 h 3 z m -6,10e-6 h -3 v 3 h 3 z m -6,0 h -3 v 3 h 3 z m -6,0 h -3 v 3 h 3 z m -6,10e-6 h -3 v 3 h 3 z m -6,0 h -3 v 3 h 3 z m -6,0 -3,1e-5 v 2.99999 h 3 z m -6,1e-5 h -3 v 3 h 3 z m -6,0 h -3 v 3 h 3 z m -6,0 -3,10e-6 v 2.99999 h 3 z m -6,10e-6 h -3 v 3 h 3 z m -6,0 h -3 v 3 h 3 z m -6,0 h -3 v 3 h 3 z m -6,1e-5 h -3 v 3 h 3 z m -6,0 h -3 v 3 h 3 z m -6,0 -3,10e-6 v 3 l 3,-10e-6 z m -6,10e-6 h -3 v 3 h 3 z m -6,0 h -3 v 3 h 3 z m -6,0 h -0.006 v 3 h 0.006 z m 8.238,-5.04567 -11.221,6.54567 11.221,6.54567 c 0.715,0.41742 1.634,0.17571 2.051,-0.53987 0.418,-0.71557 0.176,-1.63405 -0.54,-2.05147 l -9,-5.25 v 2.59134 l 9,-5.25 c 0.716,-0.41742 0.958,-1.3359 0.54,-2.05148 -0.417,-0.71558 -1.336,-0.95728 -2.051,-0.53986 z"
       fill="#404040"
       id="path488" />
    <path
       d="m 571.64947,522.81146 h -3 v 3 h 3 z m -6,0 -3,10e-6 v 3 l 3,-10e-6 z m -6,10e-6 h -3 v 3 h 3 z m -6,0 h -3 v 3 h 3 z m -6,0 -3,10e-6 v 2.99999 h 3 z m -6,10e-6 h -3 v 3 h 3 z m -6,0 h -3 v 3 h 3 z m -6,0 -3,1e-5 v 2.99999 h 3 z m -6,1e-5 h -3 v 3 h 3 z m -6,0 h -3 v 3 h 3 z m -6,0 -3,10e-6 v 2.99999 h 3 z m -6,10e-6 h -3 v 3 h 3 z m -6,0 h -3 v 3 h 3 z m -6,0 -3,10e-6 v 2.99999 h 3 z m -6,10e-6 h -3 v 3 h 3 z m -6,0 h -3 v 3 h 3 z m -6,0 h -3 v 3 h 3 z m -6,10e-6 h -3 v 3 h 3 z m -6,0 h -3 v 3 h 3 z m -6,0 -3,10e-6 v 2.99999 h 3 z m -6,10e-6 h -3 v 3 h 3 z m -6,0 h -3 v 3 h 3 z m -6,0 -3,1e-5 v 2.99999 h 3 z m -6,1e-5 h -3 v 3 h 3 z m -6,0 h -3 v 3 h 3 z m -6,0 h -3 v 3 h 3 z m -6,10e-6 h -3 v 3 h 3 z m -6,0 h -3 v 3 h 3 z m -6,0 -3,10e-6 v 3 l 3,-10e-6 z m -6,10e-6 h -3 v 3 h 3 z m -6,0 h -3 v 3 h 3 z m -6,0 h -0.006 v 3 h 0.006 z m 8.238,-5.04567 -11.221,6.54567 11.221,6.54567 c 0.715,0.41742 1.634,0.17571 2.051,-0.53987 0.418,-0.71557 0.176,-1.63405 -0.54,-2.05147 l -9,-5.25 v 2.59134 l 9,-5.25 c 0.716,-0.41742 0.958,-1.3359 0.54,-2.05148 -0.417,-0.71558 -1.336,-0.95728 -2.051,-0.53986 z"
       fill="#7f7f7f"
       id="path490" />
    <text
       fill="#ffc000"
       font-family="'Arial Narrow', 'Arial Narrow_MSFontService', sans-serif"
       font-weight="400"
       font-stretch="condensed"
       font-size="16px"
       transform="rotate(-27.115323)"
       id="text492"
       x="257.49353"
       y="433.85742">Delivers</text>
    <text
       fill="#ffc000"
       font-family="'Arial Narrow', 'Arial Narrow_MSFontService', sans-serif"
       font-weight="400"
       font-stretch="condensed"
       font-size="16px"
       transform="rotate(-27.115323)"
       id="text494"
       x="308.07071"
       y="433.91608">T3</text>
    <text
       fill="#ffc000"
       font-family="'Arial Narrow', 'Arial Narrow_MSFontService', sans-serif"
       font-weight="400"
       font-stretch="condensed"
       font-size="16px"
       transform="rotate(-27.115323)"
       id="text496"
       x="327.22507"
       y="433.61301">training</text>
    <text
       fill="#404040"
       font-family="'Arial Narrow', 'Arial Narrow_MSFontService', sans-serif"
       font-weight="400"
       font-stretch="condensed"
       font-size="16px"
       transform="rotate(-27.115323)"
       id="text498"
       x="167.3562"
       y="593.2984">Delivers</text>
    <text
       fill="#404040"
       font-family="'Arial Narrow', 'Arial Narrow_MSFontService', sans-serif"
       font-weight="400"
       font-stretch="condensed"
       font-size="16px"
       transform="rotate(-27.115323)"
       id="text500"
       x="218.11314"
       y="593.4491">CPSA</text>
    <text
       fill="#404040"
       font-family="'Arial Narrow', 'Arial Narrow_MSFontService', sans-serif"
       font-weight="400"
       font-stretch="condensed"
       font-size="16px"
       transform="rotate(-27.115323)"
       id="text502"
       x="257.17313"
       y="593.2276">t</text>
    <text
       fill="#404040"
       font-family="'Arial Narrow', 'Arial Narrow_MSFontService', sans-serif"
       font-weight="400"
       font-stretch="condensed"
       font-size="16px"
       transform="rotate(-27.115323)"
       id="text504"
       x="260.98907"
       y="592.93463">raining</text>
    <text
       fill="#404040"
       font-family="'Arial Narrow', 'Arial Narrow_MSFontService', sans-serif"
       font-weight="400"
       font-stretch="condensed"
       font-size="16px"
       id="text506"
       x="421.34445"
       y="335.81146">Attends</text>
    <text
       fill="#404040"
       font-family="'Arial Narrow', 'Arial Narrow_MSFontService', sans-serif"
       font-weight="400"
       font-stretch="condensed"
       font-size="16px"
       id="text508"
       x="469.45148"
       y="335.81146">T3</text>
    <text
       fill="#404040"
       font-family="'Arial Narrow', 'Arial Narrow_MSFontService', sans-serif"
       font-weight="400"
       font-stretch="condensed"
       font-size="16px"
       id="text510"
       x="488.45148"
       y="335.81146">training</text>
    <text
       fill="#404040"
       font-family="'Arial Narrow', 'Arial Narrow_MSFontService', sans-serif"
       font-weight="400"
       font-stretch="condensed"
       font-size="16px"
       id="text512"
       x="411.25748"
       y="508.81146">Attends</text>
    <text
       fill="#404040"
       font-family="'Arial Narrow', 'Arial Narrow_MSFontService', sans-serif"
       font-weight="400"
       font-stretch="condensed"
       font-size="16px"
       id="text514"
       x="459.59146"
       y="508.81146">CPSA</text>
    <text
       fill="#404040"
       font-family="'Arial Narrow', 'Arial Narrow_MSFontService', sans-serif"
       font-weight="400"
       font-stretch="condensed"
       font-size="16px"
       id="text516"
       x="498.53748"
       y="508.81146">t</text>
    <text
       fill="#404040"
       font-family="'Arial Narrow', 'Arial Narrow_MSFontService', sans-serif"
       font-weight="400"
       font-stretch="condensed"
       font-size="16px"
       id="text518"
       x="502.20447"
       y="508.81146">raining</text>
    <path
       d="m 714.19847,190.83846 -0.382,0.461 c -12.565,15.175 -29.302,23.537 -47.118,23.537 -17.819,0 -34.554,-8.359 -47.121,-23.537 l -0.379,-0.461 0.089,-0.591 c 2.427,-15.933 10.697,-28.733 23.286,-36.047 l 0.894,-0.52 0.714,0.753 c 5.945,6.279 13.941,9.733 22.514,9.733 8.572,0 16.569,-3.457 22.514,-9.733 l 0.714,-0.753 0.894,0.52 c 12.589,7.314 20.859,20.114 23.289,36.047 z m -47.5,-33.07 c 15.592,0 28.278,-12.77 28.278,-28.465 0,-15.695 -12.686,-28.467 -28.278,-28.467 -15.592,0 -28.279,12.772 -28.279,28.465 0,15.692 12.687,28.467 28.279,28.467 z"
       fill="#ffc000"
       fill-rule="evenodd"
       id="path520" />
    <path
       d="m 714.19847,373.04846 -0.382,0.457 c -12.565,15.042 -29.302,23.331 -47.118,23.331 -17.819,0 -34.554,-8.286 -47.121,-23.331 l -0.379,-0.457 0.089,-0.586 c 2.427,-15.793 10.697,-28.48 23.286,-35.731 l 0.894,-0.515 0.714,0.746 c 5.945,6.224 13.941,9.649 22.514,9.649 8.572,0 16.569,-3.427 22.514,-9.649 l 0.714,-0.746 0.894,0.515 c 12.589,7.251 20.859,19.938 23.289,35.731 z m -47.5,-32.779 c 15.592,0 28.278,-12.658 28.278,-28.216 0,-15.557 -12.686,-28.218 -28.278,-28.218 -15.592,0 -28.279,12.661 -28.279,28.216 0,15.554 12.687,28.218 28.279,28.218 z"
       fill="#404040"
       fill-rule="evenodd"
       id="path522" />
    <path
       d="m 714.19847,567.04846 -0.382,0.457 c -12.565,15.043 -29.302,23.331 -47.118,23.331 -17.819,0 -34.554,-8.286 -47.121,-23.331 l -0.379,-0.457 0.089,-0.586 c 2.427,-15.793 10.697,-28.48 23.286,-35.731 l 0.894,-0.515 0.714,0.746 c 5.945,6.224 13.941,9.649 22.514,9.649 8.572,0 16.569,-3.427 22.514,-9.649 l 0.714,-0.746 0.894,0.515 c 12.589,7.251 20.859,19.938 23.289,35.731 z m -47.5,-32.779 c 15.592,0 28.278,-12.658 28.278,-28.216 0,-15.557 -12.686,-28.218 -28.278,-28.218 -15.592,0 -28.279,12.661 -28.279,28.216 0,15.554 12.687,28.218 28.279,28.218 z"
       fill="#7f7f7f"
       fill-rule="evenodd"
       id="path524" />
  </g>
</svg>
