<?xml version="1.0" encoding="UTF-8" standalone="no"?>
<svg
   width="2953"
   height="1986"
   xml:space="preserve"
   overflow="hidden"
   version="1.1"
   id="svg64"
   sodipodi:docname="323933773-7b55549e-3966-4b41-bb45-b329d9765645.svg"
   inkscape:version="1.3.2 (1:1.3.2+202311252150+091e20ef0f)"
   xmlns:inkscape="http://www.inkscape.org/namespaces/inkscape"
   xmlns:sodipodi="http://sodipodi.sourceforge.net/DTD/sodipodi-0.dtd"
   xmlns="http://www.w3.org/2000/svg"
   xmlns:svg="http://www.w3.org/2000/svg"><defs
     id="defs64" /><sodipodi:namedview
     id="namedview64"
     pagecolor="#ffffff"
     bordercolor="#000000"
     borderopacity="0.25"
     inkscape:showpageshadow="2"
     inkscape:pageopacity="0.0"
     inkscape:pagecheckerboard="0"
     inkscape:deskcolor="#d1d1d1"
     inkscape:zoom="0.26363853"
     inkscape:cx="1428.0917"
     inkscape:cy="1619.6419"
     inkscape:window-width="1850"
     inkscape:window-height="1136"
     inkscape:window-x="0"
     inkscape:window-y="0"
     inkscape:window-maximized="1"
     inkscape:current-layer="g64" /><g
     transform="translate(-611 -228)"
     id="g64"><text
       fill="#404040"
       font-family="Roboto,Roboto_MSFontService,sans-serif"
       font-weight="700"
       font-size="55"
       transform="matrix(1 0 0 1 2252.43 786)"
       id="text1">T3</text><text
       fill="#404040"
       font-family="Roboto,Roboto_MSFontService,sans-serif"
       font-weight="700"
       font-size="55"
       transform="matrix(1 0 0 1 2331.49 786)"
       id="text2">T</text><text
       fill="#404040"
       font-family="Roboto,Roboto_MSFontService,sans-serif"
       font-weight="400"
       font-size="55"
       transform="matrix(1 0 0 1 2365.29 786)"
       id="text3">rainer </text><text
       fill="#404040"
       font-family="Roboto,Roboto_MSFontService,sans-serif"
       font-weight="700"
       font-size="55"
       transform="matrix(1 0 0 1 2206.31 1412)"
       id="text4">T3</text><text
       fill="#404040"
       font-family="Roboto,Roboto_MSFontService,sans-serif"
       font-weight="700"
       font-size="55"
       transform="matrix(1 0 0 1 2285.37 1412)"
       id="text5">P</text><text
       fill="#404040"
       font-family="Roboto,Roboto_MSFontService,sans-serif"
       font-weight="400"
       font-size="55"
       transform="matrix(1 0 0 1 2320.89 1412)"
       id="text6">articipant </text><text
       fill="#404040"
       font-family="Roboto,Roboto_MSFontService,sans-serif"
       font-weight="700"
       font-size="55"
       transform="matrix(1 0 0 1 2201.73 2049)"
       id="text7">C</text><text
       fill="#404040"
       font-family="Roboto,Roboto_MSFontService,sans-serif"
       font-weight="400"
       font-size="55"
       transform="matrix(1 0 0 1 2237.82 2049)"
       id="text8">PSA </text><text
       fill="#404040"
       font-family="Roboto,Roboto_MSFontService,sans-serif"
       font-weight="700"
       font-size="55"
       transform="matrix(1 0 0 1 2355.27 2049)"
       id="text9">T</text><text
       fill="#404040"
       font-family="Roboto,Roboto_MSFontService,sans-serif"
       font-weight="400"
       font-size="55"
       transform="matrix(1 0 0 1 2389.07 2049)"
       id="text10">raining </text><text
       fill="#404040"
       font-family="Roboto,Roboto_MSFontService,sans-serif"
       font-weight="700"
       font-size="55"
       transform="matrix(1 0 0 1 2245.84 2115)"
       id="text11">P</text><text
       fill="#404040"
       font-family="Roboto,Roboto_MSFontService,sans-serif"
       font-weight="400"
       font-size="55"
       transform="matrix(1 0 0 1 2281.36 2115)"
       id="text12">articipant </text><path
       d="M2752 341.678C2752 324.735 2765.73 311 2782.68 311L3439.32 311C3456.27 311 3470 324.735 3470 341.678L3470 670.322C3470 687.265 3456.27 701 3439.32 701L2782.68 701C2765.73 701 2752 687.265 2752 670.322Z"
       fill="#FFC000"
       fill-rule="evenodd"
       id="path12" /><text
       fill="#FFFFFF"
       font-family="Roboto,Roboto_MSFontService,sans-serif"
       font-weight="400"
       font-size="55"
       transform="matrix(1 0 0 1 2855.03 492)"
       id="text13">A person delivering a </text><text
       fill="#FFFFFF"
       font-family="Roboto,Roboto_MSFontService,sans-serif"
       font-weight="400"
       font-size="55"
       transform="matrix(1 0 0 1 2973.05 558)"
       id="text14">T3</text><text
       fill="#FFFFFF"
       font-family="Roboto,Roboto_MSFontService,sans-serif"
       font-weight="400"
       font-size="55"
       transform="matrix(1 0 0 1 3050.4 558)"
       id="text15">training.</text><path
       d="M2752 969.599C2752 952.7 2765.7 939 2782.6 939L3439.4 939C3456.3 939 3470 952.7 3470 969.599L3470 1297.4C3470 1314.3 3456.3 1328 3439.4 1328L2782.6 1328C2765.7 1328 2752 1314.3 2752 1297.4Z"
       fill="#404040"
       fill-rule="evenodd"
       id="path15" /><text
       fill="#FFFFFF"
       font-family="Roboto,Roboto_MSFontService,sans-serif"
       font-weight="400"
       font-size="55"
       transform="matrix(1 0 0 1 2813.49 1053)"
       id="text16">A person participating in </text><text
       fill="#FFFFFF"
       font-family="Roboto,Roboto_MSFontService,sans-serif"
       font-weight="400"
       font-size="55"
       transform="matrix(1 0 0 1 2854.74 1119)"
       id="text17">a T3 training with the</text><text
       fill="#FFFFFF"
       font-family="Roboto,Roboto_MSFontService,sans-serif"
       font-weight="400"
       font-size="55"
       transform="matrix(1 0 0 1 2806.62 1185)"
       id="text18">intention to deliver better </text><text
       fill="#FFFFFF"
       font-family="Roboto,Roboto_MSFontService,sans-serif"
       font-weight="400"
       font-size="55"
       transform="matrix(1 0 0 1 2920.93 1251)"
       id="text19">CPSA trainings.</text><path
       d="M2752 1635.68C2752 1618.73 2765.73 1605 2782.68 1605L3439.32 1605C3456.27 1605 3470 1618.73 3470 1635.68L3470 1964.32C3470 1981.27 3456.27 1995 3439.32 1995L2782.68 1995C2765.73 1995 2752 1981.27 2752 1964.32Z"
       fill="#7F7F7F"
       fill-rule="evenodd"
       id="path19" /><text
       fill="#FFFFFF"
       font-family="Roboto,Roboto_MSFontService,sans-serif"
       font-weight="400"
       font-size="55"
       transform="matrix(1 0 0 1 2813.49 1786)"
       id="text20">A person participating in </text><text
       fill="#FFFFFF"
       font-family="Roboto,Roboto_MSFontService,sans-serif"
       font-weight="400"
       font-size="55"
       transform="matrix(1 0 0 1 2913.48 1852)"
       id="text21">a CPSA training.</text><path
       d="M943.369 1878.02C933.939 1878.02 895.813 1878 886.379 1878 879.069 1878 872.187 1880.87 867.008 1886.08 861.833 1891.28 858.991 1898.18 859 1905.51L859.038 1931.81C859.045 1936.07 861.419 1939.98 865.199 1941.93 880.485 1949.83 897.708 1954 915 1954 932.295 1954 949.515 1949.83 964.805 1941.93 968.581 1939.98 970.959 1936.07 970.965 1931.81L971 1905.54C971.012 1898.29 968.167 1891.43 962.994 1886.23 957.811 1881.01 950.656 1878.02 943.369 1878.02Z"
       fill-rule="evenodd"
       id="path21" /><path
       d="M915 1868C937.609 1868 956 1849.61 956 1827 956 1804.39 937.606 1786 915 1786 892.394 1786 874 1804.39 874 1827 874 1849.61 892.391 1868 915 1868Z"
       fill-rule="evenodd"
       id="path22" /><path
       d="M1081.37 1878.02C1071.94 1878.02 1033.81 1878 1024.38 1878 1017.07 1878 1010.19 1880.87 1005.01 1886.08 999.833 1891.28 996.992 1898.18 997 1905.51L997.039 1931.81C997.045 1936.07 999.42 1939.98 1003.2 1941.93 1018.49 1949.83 1035.71 1954 1053 1954 1070.29 1954 1087.51 1949.83 1102.8 1941.93 1106.58 1939.98 1108.96 1936.07 1108.96 1931.81L1109 1905.54C1109.01 1898.29 1106.17 1891.43 1100.99 1886.23 1095.81 1881.01 1088.66 1878.02 1081.37 1878.02Z"
       fill-rule="evenodd"
       id="path23" /><path
       d="M1012 1827C1012 1849.61 1030.39 1868 1053 1868 1075.61 1868 1094 1849.61 1094 1827 1094 1804.39 1075.61 1786 1053 1786 1030.39 1786 1012 1804.39 1012 1827Z"
       fill-rule="evenodd"
       id="path24" /><path
       d="M1239.99 1886.23C1234.81 1881.01 1227.65 1878.02 1220.37 1878.02 1210.94 1878.02 1172.81 1878 1163.38 1878 1156.07 1878 1149.18 1880.87 1144.01 1886.08 1138.83 1891.28 1135.99 1898.18 1136 1905.51L1136.04 1931.81C1136.04 1936.07 1138.42 1939.98 1142.2 1941.93 1157.49 1949.83 1174.71 1954 1192 1954 1209.29 1954 1226.52 1949.83 1241.8 1941.93 1245.58 1939.98 1247.96 1936.07 1247.96 1931.81L1248 1905.53C1248.01 1898.29 1245.16 1891.43 1239.99 1886.23Z"
       fill-rule="evenodd"
       id="path25" /><path
       d="M1151 1827C1151 1849.61 1169.39 1868 1192 1868 1214.61 1868 1233 1849.61 1233 1827 1233 1804.39 1214.61 1786 1192 1786 1169.39 1786 1151 1804.39 1151 1827Z"
       fill-rule="evenodd"
       id="path26" /><path
       d="M917.402 1602.3 921.965 1602.3 921.965 1756.55C921.965 1762.87 927.072 1768 933.371 1768L1173.63 1768C1179.93 1768 1185.04 1762.87 1185.04 1756.55L1185.04 1602.3 1189.6 1602.3C1195.9 1602.3 1201 1597.17 1201 1590.84 1201 1584.52 1195.9 1579.39 1189.6 1579.39L1064.91 1579.39 1064.91 1575.45C1064.91 1569.13 1059.8 1564 1053.5 1564 1047.2 1564 1042.1 1569.13 1042.1 1575.45L1042.1 1579.39 917.402 1579.39C911.104 1579.39 906 1584.52 906 1590.84 906 1597.17 911.104 1602.3 917.402 1602.3Z"
       fill-rule="evenodd"
       id="path27" /><path
       d="M943.369 1252.02C933.939 1252.02 895.813 1252 886.379 1252 879.069 1252 872.187 1254.87 867.008 1260.08 861.833 1265.28 858.991 1272.18 859 1279.51L859.038 1305.81C859.045 1310.07 861.419 1313.98 865.199 1315.93 880.485 1323.83 897.708 1328 915 1328 932.295 1328 949.515 1323.83 964.805 1315.93 968.581 1313.98 970.959 1310.07 970.965 1305.81L971 1279.54C971.012 1272.29 968.167 1265.43 962.994 1260.23 957.811 1255.01 950.656 1252.02 943.369 1252.02Z"
       fill="#FFC000"
       fill-rule="evenodd"
       id="path28" /><path
       d="M915 1242C937.609 1242 956 1223.61 956 1201 956 1178.39 937.606 1160 915 1160 892.394 1160 874 1178.39 874 1201 874 1223.61 892.391 1242 915 1242Z"
       fill="#FFC000"
       fill-rule="evenodd"
       id="path29" /><path
       d="M1081.37 1252.02C1071.94 1252.02 1033.81 1252 1024.38 1252 1017.07 1252 1010.19 1254.87 1005.01 1260.08 999.833 1265.28 996.992 1272.18 997 1279.51L997.039 1305.81C997.045 1310.07 999.42 1313.98 1003.2 1315.93 1018.49 1323.83 1035.71 1328 1053 1328 1070.29 1328 1087.51 1323.83 1102.8 1315.93 1106.58 1313.98 1108.96 1310.07 1108.96 1305.81L1109 1279.54C1109.01 1272.29 1106.17 1265.43 1100.99 1260.23 1095.81 1255.01 1088.66 1252.02 1081.37 1252.02Z"
       fill="#FFC000"
       fill-rule="evenodd"
       id="path30" /><path
       d="M1012 1201C1012 1223.61 1030.39 1242 1053 1242 1075.61 1242 1094 1223.61 1094 1201 1094 1178.39 1075.61 1160 1053 1160 1030.39 1160 1012 1178.39 1012 1201Z"
       fill="#FFC000"
       fill-rule="evenodd"
       id="path31" /><path
       d="M1239.99 1260.23C1234.81 1255.01 1227.65 1252.02 1220.37 1252.02 1210.94 1252.02 1172.81 1252 1163.38 1252 1156.07 1252 1149.18 1254.87 1144.01 1260.08 1138.83 1265.28 1135.99 1272.18 1136 1279.51L1136.04 1305.81C1136.04 1310.07 1138.42 1313.98 1142.2 1315.93 1157.49 1323.83 1174.71 1328 1192 1328 1209.29 1328 1226.52 1323.83 1241.8 1315.93 1245.58 1313.98 1247.96 1310.07 1247.96 1305.81L1248 1279.53C1248.01 1272.29 1245.16 1265.43 1239.99 1260.23Z"
       fill="#FFC000"
       fill-rule="evenodd"
       id="path32" /><path
       d="M1151 1201C1151 1223.61 1169.39 1242 1192 1242 1214.61 1242 1233 1223.61 1233 1201 1233 1178.39 1214.61 1160 1192 1160 1169.39 1160 1151 1178.39 1151 1201Z"
       fill="#FFC000"
       fill-rule="evenodd"
       id="path33" /><path
       d="M917.402 977.109 921.965 977.109 921.965 1130.6C921.965 1136.9 927.072 1142 933.371 1142L1173.63 1142C1179.93 1142 1185.04 1136.9 1185.04 1130.6L1185.04 977.109 1189.6 977.109C1195.9 977.109 1201 972.005 1201 965.711 1201 959.416 1195.9 954.312 1189.6 954.312L1064.91 954.312 1064.91 950.398C1064.91 944.104 1059.8 939 1053.5 939 1047.2 939 1042.1 944.104 1042.1 950.398L1042.1 954.312 917.402 954.312C911.104 954.312 906 959.416 906 965.711 906 972.005 911.104 977.109 917.402 977.109Z"
       fill="#FFC000"
       fill-rule="evenodd"
       id="path34" /><text
       fill="#404040"
       font-family="Roboto,Roboto_MSFontService,sans-serif"
       font-weight="700"
       font-size="55"
       transform="matrix(1 0 0 1 736.958 1413)"
       id="text34">T</text><text
       fill="#404040"
       font-family="Roboto,Roboto_MSFontService,sans-serif"
       font-weight="400"
       font-size="55"
       transform="matrix(1 0 0 1 770.76 1413)"
       id="text35">rain </text><text
       fill="#404040"
       font-family="Roboto,Roboto_MSFontService,sans-serif"
       font-weight="700"
       font-size="55"
       transform="matrix(1 0 0 1 876.176 1413)"
       id="text36">T</text><text
       fill="#404040"
       font-family="Roboto,Roboto_MSFontService,sans-serif"
       font-weight="400"
       font-size="55"
       transform="matrix(1 0 0 1 909.978 1413)"
       id="text37">he </text><text
       fill="#404040"
       font-family="Roboto,Roboto_MSFontService,sans-serif"
       font-weight="700"
       font-size="55"
       transform="matrix(1 0 0 1 983.312 1413)"
       id="text38">T</text><text
       fill="#404040"
       font-family="Roboto,Roboto_MSFontService,sans-serif"
       font-weight="400"
       font-size="55"
       transform="matrix(1 0 0 1 1017.11 1413)"
       id="text39">rainer </text><text
       fill="#404040"
       font-family="Roboto,Roboto_MSFontService,sans-serif"
       font-weight="700"
       font-size="55"
       transform="matrix(1 0 0 1 1170.08 1413)"
       id="text40">T</text><text
       fill="#404040"
       font-family="Roboto,Roboto_MSFontService,sans-serif"
       font-weight="400"
       font-size="55"
       transform="matrix(1 0 0 1 1203.88 1413)"
       id="text41">raining</text><text
       fill="#404040"
       font-family="Roboto,Roboto_MSFontService,sans-serif"
       font-weight="700"
       font-size="55"
       transform="matrix(1 0 0 1 883.931 2040)"
       id="text42">CPSA </text><text
       fill="#404040"
       font-family="Roboto,Roboto_MSFontService,sans-serif"
       font-weight="400"
       font-size="55"
       transform="matrix(1 0 0 1 1040.34 2040)"
       id="text43">Training</text><path
       d="M2.34671-4.59128 646.867 324.838 642.174 334.021-2.34671 4.59128ZM629.524 296.495 653.63 334.085 609.043 336.565C606.2 336.724 603.767 334.547 603.608 331.704 603.45 328.86 605.627 326.427 608.47 326.269L644.232 324.28 640.177 332.211 620.843 302.062C619.306 299.664 620.003 296.475 622.4 294.938 624.797 293.401 627.987 294.098 629.524 296.495Z"
       fill="#FFC000"
       transform="matrix(-1 0 0 1 2042.61 677)"
       id="path43" /><path
       d="M2.34671-4.59128 646.867 324.838 642.174 334.021-2.34671 4.59128ZM629.524 296.495 653.63 334.085 609.043 336.565C606.2 336.724 603.767 334.547 603.608 331.704 603.45 328.86 605.627 326.427 608.47 326.269L644.232 324.28 640.177 332.211 620.843 302.062C619.306 299.664 620.003 296.475 622.4 294.938 624.797 293.401 627.987 294.098 629.524 296.495Z"
       fill="#404040"
       transform="matrix(-1 0 0 1 2042.61 1282)"
       id="path44" /><path
       d="M2.86458e-06-5.15625 639.397-5.15589 639.397 5.15661-2.86458e-06 5.15625ZM611.057-22.5004 649.63 0.000359104 611.057 22.5011C608.598 23.936 605.44 23.1051 604.006 20.6453 602.571 18.1855 603.402 15.0282 605.861 13.5934L636.799-4.45351 636.799 4.45421 605.861-13.5927C603.401-15.0276 602.571-18.1848 604.006-20.6446 605.44-23.1044 608.598-23.9353 611.057-22.5004Z"
       fill="#404040"
       transform="matrix(-1 0 0 1 2051.61 1158)"
       id="path45" /><path
       d="M2.86458e-06-5.15625 639.397-5.15589 639.397 5.15661-2.86458e-06 5.15625ZM611.057-22.5004 649.63 0.000359104 611.057 22.5011C608.598 23.936 605.44 23.1051 604.006 20.6453 602.571 18.1855 603.402 15.0282 605.861 13.5934L636.799-4.45351 636.799 4.45421 605.861-13.5927C603.401-15.0276 602.571-18.1848 604.006-20.6446 605.44-23.1044 608.598-23.9353 611.057-22.5004Z"
       fill="#7F7F7F"
       transform="matrix(-1 0 0 1 2051.61 1765)"
       id="path46" /><text
       fill="#FFC000"
       font-family="Roboto,Roboto_MSFontService,sans-serif"
       font-weight="400"
       font-size="50"
       transform="matrix(0.890091 -0.455783 0.455783 0.890091 1533.73 906)"
       id="text46">d</text><text
       fill="#FFC000"
       font-family="Roboto,Roboto_MSFontService,sans-serif"
       font-weight="400"
       font-size="50"
       transform="matrix(0.890091 -0.455783 0.455783 0.890091 1559.23 893)"
       id="text47">elivers </text><text
       fill="#FFC000"
       font-family="Roboto,Roboto_MSFontService,sans-serif"
       font-weight="400"
       font-size="50"
       transform="matrix(0.890091 -0.455783 0.455783 0.890091 1699.97 821)"
       id="text48">T3</text><text
       fill="#FFC000"
       font-family="Roboto,Roboto_MSFontService,sans-serif"
       font-weight="400"
       font-size="50"
       transform="matrix(0.890091 -0.455783 0.455783 0.890091 1763.21 789)"
       id="text49">training</text><text
       fill="#404040"
       font-family="Roboto,Roboto_MSFontService,sans-serif"
       font-weight="400"
       font-size="50"
       transform="matrix(0.890091 -0.455783 0.455783 0.890091 1535.86 1512)"
       id="text50">delivers </text><text
       fill="#404040"
       font-family="Roboto,Roboto_MSFontService,sans-serif"
       font-weight="400"
       font-size="50"
       transform="matrix(0.890091 -0.455783 0.455783 0.890091 1702.1 1427)"
       id="text51">CPSA</text><text
       fill="#404040"
       font-family="Roboto,Roboto_MSFontService,sans-serif"
       font-weight="400"
       font-size="50"
       transform="matrix(0.890091 -0.455783 0.455783 0.890091 1826.53 1363)"
       id="text52">training</text><text
       fill="#404040"
       font-family="Roboto, Roboto_MSFontService, sans-serif"
       font-weight="400"
       font-size="50px"
       transform="rotate(-27.115323,4112.5193,-2360.2835)"
       id="text53">after accreditation process</text><text
       fill="#404040"
       font-family="Roboto,Roboto_MSFontService,sans-serif"
       font-weight="400"
       font-size="50"
       transform="matrix(1 0 0 1 1535.9 1129)"
       id="text55">a</text><text
       fill="#404040"
       font-family="Roboto,Roboto_MSFontService,sans-serif"
       font-weight="400"
       font-size="50"
       transform="matrix(1 0 0 1 1563.4 1129)"
       id="text56">ttends </text><text
       fill="#404040"
       font-family="Roboto,Roboto_MSFontService,sans-serif"
       font-weight="400"
       font-size="50"
       transform="matrix(1 0 0 1 1718.66 1129)"
       id="text57">T3</text><text
       fill="#404040"
       font-family="Roboto,Roboto_MSFontService,sans-serif"
       font-weight="400"
       font-size="50"
       transform="matrix(1 0 0 1 1789.71 1129)"
       id="text58">training</text><text
       fill="#404040"
       font-family="Roboto,Roboto_MSFontService,sans-serif"
       font-weight="400"
       font-size="50"
       transform="matrix(1 0 0 1 1516.74 1737)"
       id="text59">a</text><text
       fill="#404040"
       font-family="Roboto,Roboto_MSFontService,sans-serif"
       font-weight="400"
       font-size="50"
       transform="matrix(1 0 0 1 1544.24 1737)"
       id="text60">ttends </text><text
       fill="#404040"
       font-family="Roboto,Roboto_MSFontService,sans-serif"
       font-weight="400"
       font-size="50"
       transform="matrix(1 0 0 1 1699.5 1737)"
       id="text61">CPSA</text><text
       fill="#404040"
       font-family="Roboto,Roboto_MSFontService,sans-serif"
       font-weight="400"
       font-size="50"
       transform="matrix(1 0 0 1 1839.29 1737)"
       id="text62">training</text><path
       d="M2542.08 619.986 2540.77 621.563C2497.52 673.48 2439.91 702.085 2378.58 702.085 2317.25 702.085 2259.65 673.489 2216.39 621.563L2215.08 619.986 2215.39 617.965C2223.75 563.456 2252.21 519.67 2295.54 494.645L2298.62 492.868 2301.08 495.442C2321.55 516.923 2349.07 528.742 2378.58 528.742 2408.08 528.742 2435.61 516.914 2456.07 495.442L2458.53 492.868 2461.61 494.645C2504.94 519.67 2533.41 563.456 2541.77 617.965ZM2378.58 506.854C2432.25 506.854 2475.92 463.167 2475.92 409.474 2475.92 355.781 2432.25 312.085 2378.58 312.085 2324.92 312.085 2281.25 355.781 2281.25 409.465 2281.25 463.149 2324.92 506.854 2378.58 506.854Z"
       fill="#FFC000"
       fill-rule="evenodd"
       id="path62" /><path
       d="M2542.08 1246.2 2540.77 1247.77C2497.52 1299.55 2439.91 1328.08 2378.58 1328.08 2317.25 1328.08 2259.65 1299.56 2216.39 1247.77L2215.08 1246.2 2215.39 1244.18C2223.75 1189.81 2252.21 1146.14 2295.54 1121.18L2298.62 1119.4 2301.08 1121.97C2321.55 1143.4 2349.07 1155.19 2378.58 1155.19 2408.08 1155.19 2435.61 1143.39 2456.07 1121.97L2458.53 1119.4 2461.61 1121.18C2504.94 1146.14 2533.41 1189.81 2541.77 1244.18ZM2378.58 1133.35C2432.25 1133.35 2475.92 1089.78 2475.92 1036.22 2475.92 982.668 2432.25 939.084 2378.58 939.084 2324.92 939.084 2281.25 982.668 2281.25 1036.21 2281.25 1089.76 2324.92 1133.35 2378.58 1133.35Z"
       fill="#404040"
       fill-rule="evenodd"
       id="path63" /><path
       d="M2542.08 1912.99 2540.77 1914.56C2497.52 1966.48 2439.91 1995.08 2378.58 1995.08 2317.25 1995.08 2259.65 1966.49 2216.39 1914.56L2215.08 1912.99 2215.39 1910.97C2223.75 1856.46 2252.21 1812.67 2295.54 1787.65L2298.62 1785.87 2301.08 1788.44C2321.55 1809.92 2349.07 1821.74 2378.58 1821.74 2408.08 1821.74 2435.61 1809.91 2456.07 1788.44L2458.53 1785.87 2461.61 1787.65C2504.94 1812.67 2533.41 1856.46 2541.77 1910.97ZM2378.58 1799.85C2432.25 1799.85 2475.92 1756.17 2475.92 1702.47 2475.92 1648.78 2432.25 1605.08 2378.58 1605.08 2324.92 1605.08 2281.25 1648.78 2281.25 1702.46 2281.25 1756.15 2324.92 1799.85 2378.58 1799.85Z"
       fill="#7F7F7F"
       fill-rule="evenodd"
       id="path64" /></g></svg>
