<svg width="2780" height="1851" xmlns="http://www.w3.org/2000/svg" xmlns:xlink="http://www.w3.org/1999/xlink" xml:space="preserve" overflow="hidden"><defs><clipPath id="clip0"><rect x="336" y="465" width="2780" height="1851"/></clipPath><clipPath id="clip1"><rect x="1823" y="465" width="392" height="390"/></clipPath><clipPath id="clip2"><rect x="1823" y="465" width="392" height="390"/></clipPath><clipPath id="clip3"><rect x="1823" y="465" width="392" height="390"/></clipPath><clipPath id="clip4"><rect x="1823" y="1092" width="392" height="390"/></clipPath><clipPath id="clip5"><rect x="1823" y="1092" width="392" height="390"/></clipPath><clipPath id="clip6"><rect x="1823" y="1092" width="392" height="390"/></clipPath><clipPath id="clip7"><rect x="1823" y="1758" width="392" height="392"/></clipPath><clipPath id="clip8"><rect x="1823" y="1758" width="392" height="392"/></clipPath><clipPath id="clip9"><rect x="1823" y="1758" width="392" height="392"/></clipPath><clipPath id="clip10"><rect x="499" y="1718" width="390" height="390"/></clipPath><clipPath id="clip11"><rect x="499" y="1718" width="390" height="390"/></clipPath><clipPath id="clip12"><rect x="499" y="1718" width="390" height="390"/></clipPath><clipPath id="clip13"><rect x="499" y="1092" width="390" height="390"/></clipPath><clipPath id="clip14"><rect x="499" y="1092" width="390" height="390"/></clipPath><clipPath id="clip15"><rect x="499" y="1092" width="390" height="390"/></clipPath></defs><g clip-path="url(#clip0)" transform="translate(-336 -465)"><g clip-path="url(#clip1)"><g clip-path="url(#clip2)"><g clip-path="url(#clip3)"><path d="M358.569 307.902 357.254 309.48C313.984 361.396 256.348 390.001 194.996 390.001 133.635 390.001 76.0081 361.405 32.729 309.48L31.4238 307.902 31.732 305.881C40.0887 251.372 68.5668 207.586 111.918 182.561L115 180.784 117.456 183.358C137.931 204.839 165.467 216.658 194.987 216.658 224.508 216.658 252.043 204.83 272.518 183.358L274.974 180.784 278.056 182.561C321.407 207.586 349.885 251.372 358.251 305.881ZM194.996 194.77C248.689 194.77 292.376 151.083 292.376 97.3893 292.376 43.696 248.689 0 194.996 0 141.303 0 97.6159 43.696 97.6159 97.3802 97.6159 151.064 141.303 194.77 194.996 194.77Z" fill="#FFC000" transform="matrix(1 0 0 1 1824 465)"/></g></g></g><g clip-path="url(#clip4)"><g clip-path="url(#clip5)"><g clip-path="url(#clip6)"><path d="M358.569 307.902 357.254 309.48C313.984 361.396 256.348 390.001 194.996 390.001 133.635 390.001 76.0081 361.405 32.729 309.48L31.4238 307.902 31.732 305.881C40.0887 251.372 68.5668 207.586 111.918 182.561L115 180.784 117.456 183.358C137.931 204.839 165.467 216.658 194.987 216.658 224.508 216.658 252.043 204.83 272.518 183.358L274.974 180.784 278.056 182.561C321.407 207.586 349.885 251.372 358.251 305.881ZM194.996 194.77C248.689 194.77 292.376 151.083 292.376 97.3893 292.376 43.696 248.689 0 194.996 0 141.303 0 97.6159 43.696 97.6159 97.3802 97.6159 151.064 141.303 194.77 194.996 194.77Z" fill="#404040" transform="matrix(1 0 0 1 1824 1092)"/></g></g></g><g clip-path="url(#clip7)"><g clip-path="url(#clip8)"><g clip-path="url(#clip9)"><path d="M2182.57 2066.9 2181.26 2068.48C2137.99 2120.4 2080.35 2149 2019 2149 1957.64 2149 1900.01 2120.41 1856.73 2068.48L1855.43 2066.9 1855.74 2064.88C1864.09 2010.37 1892.57 1966.59 1935.92 1941.56L1939 1939.78 1941.46 1942.36C1961.94 1963.84 1989.47 1975.66 2018.99 1975.66 2048.51 1975.66 2076.05 1963.83 2096.52 1942.36L2098.98 1939.78 2102.06 1941.56C2145.41 1966.59 2173.89 2010.37 2182.26 2064.88ZM2019 1953.77C2072.69 1953.77 2116.38 1910.08 2116.38 1856.39 2116.38 1802.7 2072.69 1759 2019 1759 1965.31 1759 1921.62 1802.7 1921.62 1856.38 1921.62 1910.06 1965.31 1953.77 2019 1953.77Z" fill="#7F7F7F"/></g></g></g><text fill="#FFFFFF" font-family="Cubano,Cubano_MSFontService,sans-serif" font-weight="400" font-size="92" transform="matrix(1 0 0 1 1939 815)">T3T<tspan font-size="92" x="0" y="628">T3P</tspan><tspan font-size="92" x="0" y="1293">CTP</tspan><tspan fill="#404040" font-family="Ubuntu,Ubuntu_MSFontService,sans-serif" font-weight="700" font-size="55" x="-49.6116" y="127">T3</tspan><tspan fill="#404040" font-family="Ubuntu,Ubuntu_MSFontService,sans-serif" font-weight="700" font-size="55" x="28.3052" y="127">T</tspan><tspan fill="#404040" font-family="Ubuntu,Ubuntu_MSFontService,sans-serif" font-size="55" x="62.1072" y="127">rainer </tspan><tspan fill="#404040" font-family="Ubuntu,Ubuntu_MSFontService,sans-serif" font-weight="700" font-size="55" x="-97.1638" y="754">T3</tspan><tspan fill="#404040" font-family="Ubuntu,Ubuntu_MSFontService,sans-serif" font-weight="700" font-size="55" x="-19.2471" y="754">P</tspan><tspan fill="#404040" font-family="Ubuntu,Ubuntu_MSFontService,sans-serif" font-size="55" x="16.2737" y="754">articipant </tspan><tspan fill="#404040" font-family="Ubuntu,Ubuntu_MSFontService,sans-serif" font-weight="700" font-size="55" x="-96.5907" y="1390">C</tspan><tspan fill="#404040" font-family="Ubuntu,Ubuntu_MSFontService,sans-serif" font-size="55" x="-61.0698" y="1390">PSA </tspan><tspan fill="#404040" font-family="Ubuntu,Ubuntu_MSFontService,sans-serif" font-weight="700" font-size="55" x="50.6489" y="1390">T</tspan><tspan fill="#404040" font-family="Ubuntu,Ubuntu_MSFontService,sans-serif" font-size="55" x="84.4509" y="1390">raining </tspan><tspan fill="#404040" font-family="Ubuntu,Ubuntu_MSFontService,sans-serif" font-weight="700" font-size="55" x="-58.2053" y="1456">P</tspan><tspan fill="#404040" font-family="Ubuntu,Ubuntu_MSFontService,sans-serif" font-size="55" x="-22.6845" y="1456">articipant </tspan></text><path d="M2392 495.599C2392 478.7 2405.7 465 2422.6 465L3079.4 465C3096.3 465 3110 478.7 3110 495.599L3110 823.401C3110 840.3 3096.3 854 3079.4 854L2422.6 854C2405.7 854 2392 840.3 2392 823.401Z" fill="#FFC000" fill-rule="evenodd"/><text fill="#FFFFFF" font-family="Ubuntu Condensed,Ubuntu Condensed_MSFontService,sans-serif" font-weight="400" font-stretch="condensed" font-size="64" transform="matrix(1 0 0 1 2467.93 646)">A person delivering a T3 <tspan font-size="64" x="179.598" y="77">training.</tspan></text><path d="M2392 1122.68C2392 1105.73 2405.74 1092 2422.68 1092L3079.32 1092C3096.27 1092 3110 1105.73 3110 1122.68L3110 1451.32C3110 1468.27 3096.27 1482 3079.32 1482L2422.68 1482C2405.74 1482 2392 1468.27 2392 1451.32Z" fill="#404040" fill-rule="evenodd"/><text fill="#FFFFFF" font-family="Ubuntu Condensed,Ubuntu Condensed_MSFontService,sans-serif" font-weight="400" font-stretch="condensed" font-size="64" transform="matrix(1 0 0 1 2437.85 1197)">A person participating in a <tspan font-size="64" x="79.0625" y="77">T3 training with the</tspan><tspan font-size="64" x="2.0166" y="154">intention to deliver better </tspan><tspan font-size="64" x="132.917" y="231">CPSA trainings.</tspan></text><path d="M2392 1789.68C2392 1772.73 2405.74 1759 2422.68 1759L3079.32 1759C3096.27 1759 3110 1772.73 3110 1789.68L3110 2118.32C3110 2135.26 3096.27 2149 3079.32 2149L2422.68 2149C2405.74 2149 2392 2135.26 2392 2118.32Z" fill="#7F7F7F" fill-rule="evenodd"/><text fill="#FFFFFF" font-family="Ubuntu Condensed,Ubuntu Condensed_MSFontService,sans-serif" font-weight="400" font-stretch="condensed" font-size="64" transform="matrix(1 0 0 1 2437.85 1941)">A person participating in a <tspan font-size="64" x="143.802" y="77">CPSA training.</tspan></text><g clip-path="url(#clip10)"><g clip-path="url(#clip11)"><g clip-path="url(#clip12)"><path d="M583.887 2031.89C574.398 2031.89 536.039 2031.87 526.547 2031.87 519.192 2031.87 512.268 2034.74 507.058 2039.96 501.851 2045.17 498.991 2052.09 499 2059.43L499.039 2085.77C499.045 2090.04 501.434 2093.95 505.237 2095.91 520.617 2103.82 537.946 2108 555.344 2108 572.744 2108 590.07 2103.82 605.453 2095.91 609.253 2093.95 611.645 2090.04 611.651 2085.77L611.687 2059.45C611.699 2052.19 608.836 2045.32 603.632 2040.11 598.417 2034.89 591.218 2031.89 583.887 2031.89Z"/><path d="M555.332 2021.9C577.93 2021.9 596.313 2003.51 596.313 1980.92 596.313 1958.32 577.927 1939.94 555.332 1939.94 532.736 1939.94 514.351 1958.32 514.351 1980.92 514.351 2003.51 532.733 2021.9 555.332 2021.9Z"/><path d="M722.098 2031.89C712.609 2031.89 674.246 2031.87 664.754 2031.87 657.399 2031.87 650.478 2034.74 645.265 2039.96 640.058 2045.17 637.199 2052.09 637.207 2059.43L637.246 2085.77C637.252 2090.04 639.641 2093.95 643.444 2095.91 658.827 2103.82 676.153 2108 693.551 2108 710.951 2108 728.277 2103.82 743.66 2095.91 747.46 2093.95 749.852 2090.04 749.858 2085.77L749.897 2059.45C749.906 2052.19 747.047 2045.32 741.84 2040.11 736.624 2034.89 729.429 2031.89 722.098 2031.89Z"/><path d="M652.558 1980.92C652.558 2003.52 670.943 2021.9 693.539 2021.9 716.137 2021.9 734.52 2003.51 734.52 1980.92 734.52 1958.32 716.137 1939.94 693.539 1939.94 670.943 1939.94 652.558 1958.32 652.558 1980.92Z"/><path d="M880.829 2040.11C875.614 2034.89 868.416 2031.89 861.087 2031.89 851.598 2031.89 813.239 2031.87 803.744 2031.87 796.389 2031.87 789.465 2034.74 784.255 2039.96 779.05 2045.17 776.188 2052.09 776.2 2059.43L776.236 2085.77C776.242 2090.04 778.634 2093.95 782.434 2095.91 797.817 2103.82 815.143 2108 832.544 2108 849.941 2108 867.27 2103.82 882.65 2095.91 886.453 2093.95 888.845 2090.04 888.851 2085.77L888.887 2059.45C888.896 2052.19 886.033 2045.32 880.829 2040.11Z"/><path d="M791.547 1980.92C791.547 2003.52 809.933 2021.9 832.528 2021.9 855.127 2021.9 873.513 2003.51 873.513 1980.92 873.513 1958.32 855.127 1939.94 832.528 1939.94 809.933 1939.94 791.547 1958.32 791.547 1980.92Z"/><path d="M557.635 1756.19 562.205 1756.19 562.205 1910.01C562.205 1916.32 567.32 1921.43 573.628 1921.43L814.259 1921.43C820.567 1921.43 825.682 1916.32 825.682 1910.01L825.682 1756.19 830.249 1756.19C836.56 1756.19 841.672 1751.08 841.672 1744.77 841.672 1738.46 836.56 1733.34 830.249 1733.34L705.366 1733.34 705.366 1729.42C705.366 1723.11 700.251 1718 693.944 1718 687.636 1718 682.521 1723.11 682.521 1729.42L682.521 1733.34 557.635 1733.34C551.327 1733.34 546.215 1738.46 546.215 1744.77 546.215 1751.08 551.327 1756.19 557.635 1756.19Z"/></g></g></g><text fill="#FFFFFF" font-family="Cubano,Cubano_MSFontService,sans-serif" font-weight="400" font-size="92" transform="matrix(1 0 0 1 589.621 1860)">CPSA</text><g clip-path="url(#clip13)"><g clip-path="url(#clip14)"><g clip-path="url(#clip15)"><path d="M583.887 1405.89C574.398 1405.89 536.039 1405.87 526.547 1405.87 519.192 1405.87 512.268 1408.74 507.058 1413.96 501.851 1419.17 498.991 1426.09 499 1433.43L499.039 1459.77C499.045 1464.04 501.434 1467.95 505.237 1469.91 520.617 1477.82 537.946 1482 555.344 1482 572.744 1482 590.07 1477.82 605.453 1469.91 609.253 1467.95 611.645 1464.04 611.651 1459.77L611.687 1433.45C611.699 1426.19 608.836 1419.32 603.632 1414.11 598.417 1408.89 591.218 1405.89 583.887 1405.89Z" fill="#FFC000"/><path d="M555.332 1395.9C577.93 1395.9 596.313 1377.51 596.313 1354.92 596.313 1332.32 577.927 1313.94 555.332 1313.94 532.736 1313.94 514.351 1332.32 514.351 1354.92 514.351 1377.51 532.733 1395.9 555.332 1395.9Z" fill="#FFC000"/><path d="M722.098 1405.89C712.609 1405.89 674.246 1405.87 664.754 1405.87 657.399 1405.87 650.478 1408.74 645.265 1413.96 640.058 1419.17 637.199 1426.09 637.207 1433.43L637.246 1459.77C637.252 1464.04 639.641 1467.95 643.444 1469.91 658.827 1477.82 676.153 1482 693.551 1482 710.951 1482 728.277 1477.82 743.66 1469.91 747.46 1467.95 749.852 1464.04 749.858 1459.77L749.897 1433.45C749.906 1426.19 747.047 1419.32 741.84 1414.11 736.624 1408.89 729.429 1405.89 722.098 1405.89Z" fill="#FFC000"/><path d="M652.558 1354.92C652.558 1377.52 670.943 1395.9 693.539 1395.9 716.137 1395.9 734.52 1377.51 734.52 1354.92 734.52 1332.32 716.137 1313.94 693.539 1313.94 670.943 1313.94 652.558 1332.32 652.558 1354.92Z" fill="#FFC000"/><path d="M880.829 1414.11C875.614 1408.89 868.416 1405.89 861.087 1405.89 851.598 1405.89 813.239 1405.87 803.744 1405.87 796.389 1405.87 789.465 1408.74 784.255 1413.96 779.05 1419.17 776.188 1426.09 776.2 1433.43L776.236 1459.77C776.242 1464.04 778.634 1467.95 782.434 1469.91 797.817 1477.82 815.143 1482 832.544 1482 849.941 1482 867.27 1477.82 882.65 1469.91 886.453 1467.95 888.845 1464.04 888.851 1459.77L888.887 1433.45C888.896 1426.19 886.033 1419.32 880.829 1414.11Z" fill="#FFC000"/><path d="M791.547 1354.92C791.547 1377.52 809.933 1395.9 832.528 1395.9 855.127 1395.9 873.513 1377.51 873.513 1354.92 873.513 1332.32 855.127 1313.94 832.528 1313.94 809.933 1313.94 791.547 1332.32 791.547 1354.92Z" fill="#FFC000"/><path d="M557.635 1130.19 562.205 1130.19 562.205 1284.01C562.205 1290.32 567.32 1295.43 573.628 1295.43L814.259 1295.43C820.567 1295.43 825.682 1290.32 825.682 1284.01L825.682 1130.19 830.249 1130.19C836.56 1130.19 841.672 1125.08 841.672 1118.77 841.672 1112.46 836.56 1107.34 830.249 1107.34L705.366 1107.34 705.366 1103.42C705.366 1097.11 700.251 1092 693.944 1092 687.636 1092 682.521 1097.11 682.521 1103.42L682.521 1107.34 557.635 1107.34C551.327 1107.34 546.215 1112.46 546.215 1118.77 546.215 1125.08 551.327 1130.19 557.635 1130.19Z" fill="#FFC000"/></g></g></g><text fill="#FFFFFF" font-family="Cubano,Cubano_MSFontService,sans-serif" font-weight="400" font-size="92" transform="matrix(1 0 0 1 585.038 1228)">TTTT<tspan fill="#404040" font-family="Ubuntu,Ubuntu_MSFontService,sans-serif" font-weight="700" font-size="55" x="-215.99" y="341">T</tspan><tspan fill="#404040" font-family="Ubuntu,Ubuntu_MSFontService,sans-serif" font-size="55" x="-182.188" y="341">rain </tspan><tspan fill="#404040" font-family="Ubuntu,Ubuntu_MSFontService,sans-serif" font-weight="700" font-size="55" x="-74.4799" y="341">T</tspan><tspan fill="#404040" font-family="Ubuntu,Ubuntu_MSFontService,sans-serif" font-size="55" x="-40.6778" y="341">he </tspan><tspan fill="#404040" font-family="Ubuntu,Ubuntu_MSFontService,sans-serif" font-weight="700" font-size="55" x="34.3743" y="341">T</tspan><tspan fill="#404040" font-family="Ubuntu,Ubuntu_MSFontService,sans-serif" font-size="55" x="68.1764" y="341">rainer </tspan><tspan fill="#404040" font-family="Ubuntu,Ubuntu_MSFontService,sans-serif" font-weight="700" font-size="55" x="228.02" y="341">T</tspan><tspan fill="#404040" font-family="Ubuntu,Ubuntu_MSFontService,sans-serif" font-size="55" x="261.822" y="341">raining</tspan><tspan fill="#404040" font-family="Ubuntu,Ubuntu_MSFontService,sans-serif" font-weight="700" font-size="55" x="-62.4284" y="968">CPSA </tspan><tspan fill="#404040" font-family="Ubuntu,Ubuntu_MSFontService,sans-serif" font-size="55" x="93.4049" y="968">Training</tspan></text><path d="M2.34671-4.59128 11.5293 0.102144 6.83585 9.2847-2.34671 4.59128ZM20.7118 4.79557 29.8944 9.48899 25.201 18.6716 16.0184 13.9781ZM39.077 14.1824 48.2595 18.8758 43.5661 28.0584 34.3835 23.365ZM57.4421 23.5693 66.6246 28.2627 61.9312 37.4453 52.7487 32.7518ZM75.8072 32.9561 84.9898 37.6495 80.2963 46.8321 71.1138 42.1387ZM94.1723 42.343 103.355 47.0364 98.6615 56.2189 89.4789 51.5255ZM112.537 51.7298 121.72 56.4232 117.027 65.6058 107.844 60.9124ZM130.903 61.1167 140.085 65.8101 135.392 74.9926 126.209 70.2992ZM149.268 70.5035 158.45 75.1969 153.757 84.3795 144.574 79.6861ZM167.633 79.8904 176.815 84.5838 172.122 93.7663 162.939 89.0729ZM185.998 89.2772 195.18 93.9706 190.487 103.153 181.304 98.4598ZM204.363 98.664 213.546 103.357 208.852 112.54 199.67 107.847ZM222.728 108.051 231.911 112.744 227.217 121.927 218.035 117.233ZM241.093 117.438 250.276 122.131 245.582 131.314 236.4 126.62ZM259.458 126.825 268.641 131.518 263.948 140.701 254.765 136.007ZM277.824 136.211 287.006 140.905 282.313 150.087 273.13 145.394ZM296.189 145.598 305.371 150.292 300.678 159.474 291.495 154.781ZM314.554 154.985 323.736 159.679 319.043 168.861 309.86 164.168ZM332.919 164.372 342.102 169.065 337.408 178.248 328.226 173.555ZM351.284 173.759 360.467 178.452 355.773 187.635 346.591 182.941ZM369.649 183.146 378.832 187.839 374.138 197.022 364.956 192.328ZM388.014 192.533 397.197 197.226 392.504 206.409 383.321 201.715ZM406.379 201.919 415.562 206.613 410.869 215.795 401.686 211.102ZM424.745 211.306 433.927 216 429.234 225.182 420.051 220.489ZM443.11 220.693 452.292 225.387 447.599 234.569 438.416 229.876ZM461.475 230.08 470.657 234.773 465.964 243.956 456.781 239.263ZM479.84 239.467 489.022 244.16 484.329 253.343 475.146 248.649ZM498.205 248.854 507.387 253.547 502.694 262.73 493.512 258.036ZM516.57 258.241 525.753 262.934 521.059 272.117 511.877 267.423ZM534.935 267.627 544.118 272.321 539.424 281.503 530.242 276.81ZM553.3 277.014 562.483 281.708 557.789 290.89 548.607 286.197ZM571.665 286.401 580.848 291.095 576.155 300.277 566.972 295.584ZM590.031 295.788 599.213 300.481 594.52 309.664 585.337 304.97ZM608.396 305.175 617.578 309.868 612.885 319.051 603.702 314.357ZM626.761 314.562 635.943 319.255 631.25 328.438 622.067 323.744ZM645.126 323.948 646.869 324.839 642.175 334.022 640.433 333.131ZM629.524 296.495 653.63 334.086 609.043 336.566C606.2 336.724 603.767 334.547 603.608 331.704 603.45 328.861 605.627 326.427 608.47 326.269L644.232 324.28 640.177 332.212 620.843 302.062C619.306 299.665 620.003 296.475 622.4 294.938 624.797 293.401 627.987 294.098 629.524 296.495Z" fill="#FFC000" transform="matrix(-1 0 0 1 1683.61 831)"/><path d="M2.34671-4.59128 11.5293 0.102144 6.83585 9.2847-2.34671 4.59128ZM20.7118 4.79557 29.8944 9.48899 25.201 18.6716 16.0184 13.9781ZM39.077 14.1824 48.2595 18.8758 43.5661 28.0584 34.3835 23.365ZM57.4421 23.5693 66.6246 28.2627 61.9312 37.4453 52.7487 32.7518ZM75.8072 32.9561 84.9898 37.6495 80.2963 46.8321 71.1138 42.1387ZM94.1723 42.343 103.355 47.0364 98.6615 56.2189 89.4789 51.5255ZM112.537 51.7298 121.72 56.4232 117.027 65.6058 107.844 60.9124ZM130.903 61.1167 140.085 65.8101 135.392 74.9926 126.209 70.2992ZM149.268 70.5035 158.45 75.1969 153.757 84.3795 144.574 79.6861ZM167.633 79.8904 176.815 84.5838 172.122 93.7663 162.939 89.0729ZM185.998 89.2772 195.18 93.9706 190.487 103.153 181.304 98.4598ZM204.363 98.664 213.546 103.357 208.852 112.54 199.67 107.847ZM222.728 108.051 231.911 112.744 227.217 121.927 218.035 117.233ZM241.093 117.438 250.276 122.131 245.582 131.314 236.4 126.62ZM259.458 126.825 268.641 131.518 263.948 140.701 254.765 136.007ZM277.824 136.211 287.006 140.905 282.313 150.087 273.13 145.394ZM296.189 145.598 305.371 150.292 300.678 159.474 291.495 154.781ZM314.554 154.985 323.736 159.679 319.043 168.861 309.86 164.168ZM332.919 164.372 342.102 169.065 337.408 178.248 328.226 173.555ZM351.284 173.759 360.467 178.452 355.773 187.635 346.591 182.941ZM369.649 183.146 378.832 187.839 374.138 197.022 364.956 192.328ZM388.014 192.533 397.197 197.226 392.504 206.409 383.321 201.715ZM406.379 201.919 415.562 206.613 410.869 215.795 401.686 211.102ZM424.745 211.306 433.927 216 429.234 225.182 420.051 220.489ZM443.11 220.693 452.292 225.387 447.599 234.569 438.416 229.876ZM461.475 230.08 470.657 234.773 465.964 243.956 456.781 239.263ZM479.84 239.467 489.022 244.16 484.329 253.343 475.146 248.649ZM498.205 248.854 507.387 253.547 502.694 262.73 493.512 258.036ZM516.57 258.241 525.753 262.934 521.059 272.117 511.877 267.423ZM534.935 267.627 544.118 272.321 539.424 281.503 530.242 276.81ZM553.3 277.014 562.483 281.708 557.789 290.89 548.607 286.197ZM571.665 286.401 580.848 291.095 576.155 300.277 566.972 295.584ZM590.031 295.788 599.213 300.481 594.52 309.664 585.337 304.97ZM608.396 305.175 617.578 309.868 612.885 319.051 603.702 314.357ZM626.761 314.562 635.943 319.255 631.25 328.438 622.067 323.744ZM645.126 323.948 646.869 324.839 642.175 334.022 640.433 333.131ZM629.524 296.495 653.63 334.086 609.043 336.566C606.2 336.724 603.767 334.547 603.608 331.704 603.45 328.861 605.627 326.427 608.47 326.269L644.232 324.28 640.177 332.212 620.843 302.062C619.306 299.665 620.003 296.475 622.4 294.938 624.797 293.401 627.987 294.098 629.524 296.495Z" fill="#404040" transform="matrix(-1 0 0 1 1683.61 1435)"/><path d="M2.86458e-06-5.15625 10.3125-5.15624 10.3125 5.15626-2.86458e-06 5.15625ZM20.625-5.15624 30.9375-5.15623 30.9375 5.15627 20.625 5.15626ZM41.25-5.15623 51.5625-5.15622 51.5625 5.15628 41.25 5.15627ZM61.875-5.15622 72.1875-5.15621 72.1875 5.15629 61.875 5.15628ZM82.5-5.1562 92.8125-5.1562 92.8125 5.1563 82.5 5.1563ZM103.125-5.15619 113.438-5.15619 113.438 5.15631 103.125 5.15631ZM123.75-5.15618 134.062-5.15618 134.062 5.15632 123.75 5.15632ZM144.375-5.15617 154.688-5.15616 154.688 5.15634 144.375 5.15633ZM165-5.15616 175.312-5.15615 175.312 5.15635 165 5.15634ZM185.625-5.15615 195.938-5.15614 195.938 5.15636 185.625 5.15635ZM206.25-5.15614 216.562-5.15613 216.562 5.15637 206.25 5.15636ZM226.875-5.15612 237.188-5.15612 237.188 5.15638 226.875 5.15638ZM247.5-5.15611 257.812-5.15611 257.812 5.15639 247.5 5.15639ZM268.125-5.1561 278.438-5.1561 278.438 5.1564 268.125 5.1564ZM288.75-5.15609 299.062-5.15608 299.062 5.15642 288.75 5.15641ZM309.375-5.15608 319.688-5.15607 319.688 5.15643 309.375 5.15642ZM330-5.15607 340.312-5.15606 340.312 5.15644 330 5.15643ZM350.625-5.15605 360.938-5.15605 360.938 5.15645 350.625 5.15645ZM371.25-5.15604 381.562-5.15604 381.562 5.15646 371.25 5.15646ZM391.875-5.15603 402.188-5.15603 402.188 5.15647 391.875 5.15647ZM412.5-5.15602 422.812-5.15602 422.812 5.15648 412.5 5.15648ZM433.125-5.15601 443.438-5.156 443.438 5.1565 433.125 5.15649ZM453.75-5.156 464.062-5.15599 464.062 5.15651 453.75 5.1565ZM474.375-5.15599 484.688-5.15598 484.688 5.15652 474.375 5.15651ZM495-5.15597 505.312-5.15597 505.312 5.15653 495 5.15652ZM515.625-5.15596 525.938-5.15596 525.938 5.15654 515.625 5.15654ZM536.25-5.15595 546.562-5.15595 546.562 5.15655 536.25 5.15655ZM556.875-5.15594 567.188-5.15593 567.188 5.15657 556.875 5.15656ZM577.5-5.15593 587.812-5.15592 587.812 5.15658 577.5 5.15657ZM598.125-5.15592 608.438-5.15591 608.438 5.15659 598.125 5.15658ZM618.75-5.15591 629.062-5.1559 629.062 5.1566 618.75 5.15659ZM639.375-5.15589 639.397-5.15589 639.397 5.15661 639.375 5.15661ZM611.057-22.5004 649.63 0.000359104 611.057 22.5011C608.598 23.936 605.44 23.1051 604.006 20.6453 602.571 18.1855 603.402 15.0282 605.861 13.5934L636.799-4.45351 636.799 4.45421 605.861-13.5927C603.401-15.0276 602.571-18.1848 604.006-20.6446 605.44-23.1044 608.598-23.9353 611.057-22.5004Z" fill="#404040" transform="matrix(-1 0 0 1 1691.61 1311)"/><path d="M2.86458e-06-5.15625 10.3125-5.15624 10.3125 5.15626-2.86458e-06 5.15625ZM20.625-5.15624 30.9375-5.15623 30.9375 5.15627 20.625 5.15626ZM41.25-5.15623 51.5625-5.15622 51.5625 5.15628 41.25 5.15627ZM61.875-5.15622 72.1875-5.15621 72.1875 5.15629 61.875 5.15628ZM82.5-5.1562 92.8125-5.1562 92.8125 5.1563 82.5 5.1563ZM103.125-5.15619 113.438-5.15619 113.438 5.15631 103.125 5.15631ZM123.75-5.15618 134.062-5.15618 134.062 5.15632 123.75 5.15632ZM144.375-5.15617 154.688-5.15616 154.688 5.15634 144.375 5.15633ZM165-5.15616 175.312-5.15615 175.312 5.15635 165 5.15634ZM185.625-5.15615 195.938-5.15614 195.938 5.15636 185.625 5.15635ZM206.25-5.15614 216.562-5.15613 216.562 5.15637 206.25 5.15636ZM226.875-5.15612 237.188-5.15612 237.188 5.15638 226.875 5.15638ZM247.5-5.15611 257.812-5.15611 257.812 5.15639 247.5 5.15639ZM268.125-5.1561 278.438-5.1561 278.438 5.1564 268.125 5.1564ZM288.75-5.15609 299.062-5.15608 299.062 5.15642 288.75 5.15641ZM309.375-5.15608 319.688-5.15607 319.688 5.15643 309.375 5.15642ZM330-5.15607 340.312-5.15606 340.312 5.15644 330 5.15643ZM350.625-5.15605 360.938-5.15605 360.938 5.15645 350.625 5.15645ZM371.25-5.15604 381.562-5.15604 381.562 5.15646 371.25 5.15646ZM391.875-5.15603 402.188-5.15603 402.188 5.15647 391.875 5.15647ZM412.5-5.15602 422.812-5.15602 422.812 5.15648 412.5 5.15648ZM433.125-5.15601 443.438-5.156 443.438 5.1565 433.125 5.15649ZM453.75-5.156 464.062-5.15599 464.062 5.15651 453.75 5.1565ZM474.375-5.15599 484.688-5.15598 484.688 5.15652 474.375 5.15651ZM495-5.15597 505.312-5.15597 505.312 5.15653 495 5.15652ZM515.625-5.15596 525.938-5.15596 525.938 5.15654 515.625 5.15654ZM536.25-5.15595 546.562-5.15595 546.562 5.15655 536.25 5.15655ZM556.875-5.15594 567.188-5.15593 567.188 5.15657 556.875 5.15656ZM577.5-5.15593 587.812-5.15592 587.812 5.15658 577.5 5.15657ZM598.125-5.15592 608.438-5.15591 608.438 5.15659 598.125 5.15658ZM618.75-5.15591 629.062-5.1559 629.062 5.1566 618.75 5.15659ZM639.375-5.15589 639.397-5.15589 639.397 5.15661 639.375 5.15661ZM611.057-22.5004 649.63 0.000359104 611.057 22.5011C608.598 23.936 605.44 23.1051 604.006 20.6453 602.571 18.1855 603.402 15.0282 605.861 13.5934L636.799-4.45351 636.799 4.45421 605.861-13.5927C603.401-15.0276 602.571-18.1848 604.006-20.6446 605.44-23.1044 608.598-23.9353 611.057-22.5004Z" fill="#7F7F7F" transform="matrix(-1 0 0 1 1691.61 1919)"/><text fill="#FFC000" font-family="Ubuntu,Ubuntu_MSFontService,sans-serif" font-weight="400" font-size="55" transform="matrix(0.890091 -0.455783 0.455783 0.890091 1230.53 1023)">Delivers TTT<tspan fill="#404040" font-size="55" x="-403.394" y="548.416">Delivers CPSA Training</tspan></text><text fill="#404040" font-family="Ubuntu,Ubuntu_MSFontService,sans-serif" font-weight="400" font-size="55" transform="matrix(1 0 0 1 1196.73 1271)">Attends TTTT<tspan font-size="55" x="-112.578" y="597">Attends CPSA Training</tspan></text></g></svg>