<svg width="2607" height="2225" xmlns="http://www.w3.org/2000/svg" xmlns:xlink="http://www.w3.org/1999/xlink" xml:space="preserve" overflow="hidden"><defs><clipPath id="clip0"><rect x="897" y="91" width="2607" height="2225"/></clipPath><clipPath id="clip1"><rect x="1963" y="1599" width="473" height="350"/></clipPath><clipPath id="clip2"><rect x="1963" y="1599" width="473" height="350"/></clipPath><clipPath id="clip3"><rect x="1903" y="1599" width="871" height="873"/></clipPath><clipPath id="clip4"><rect x="1963" y="443" width="474" height="348"/></clipPath><clipPath id="clip5"><rect x="1963" y="443" width="474" height="348"/></clipPath><clipPath id="clip6"><rect x="1626" y="-79" width="871" height="870"/></clipPath><clipPath id="clip7"><rect x="1321" y="962" width="348" height="474"/></clipPath><clipPath id="clip8"><rect x="1321" y="962" width="348" height="474"/></clipPath><clipPath id="clip9"><rect x="799" y="901" width="870" height="874"/></clipPath><clipPath id="clip10"><rect x="2733" y="1001" width="349" height="473"/></clipPath><clipPath id="clip11"><rect x="2733" y="1001" width="349" height="473"/></clipPath><clipPath id="clip12"><rect x="2733" y="662" width="870" height="874"/></clipPath></defs><g clip-path="url(#clip0)" transform="translate(-897 -91)"><path d="M1420 582.983C1420 562.005 1437.01 545 1457.98 545L2941.02 545C2961.99 545 2979 562.005 2979 582.983L2979 1806.02C2979 1826.99 2961.99 1844 2941.02 1844L1457.98 1844C1437.01 1844 1420 1826.99 1420 1806.02Z" fill="#404040" fill-rule="evenodd"/><text fill="#FFFFFF" font-family="Ubuntu,Ubuntu_MSFontService,sans-serif" font-weight="400" font-size="128" transform="matrix(1 0 0 1 2049.82 1125)">LU02 <tspan font-size="101" x="-246.354" y="127">Foundation </tspan><tspan font-size="101" x="303.073" y="127">Level </tspan><tspan font-size="101" x="-101.108" y="248">Curriculum</tspan><tspan fill="#7F7F7F" font-size="83" x="70.1821" y="393">12 h</tspan></text><g clip-path="url(#clip1)"><g clip-path="url(#clip2)"><g clip-path="url(#clip3)"><path d="M762.206 163.862C738.356 163.862 715.839 173.158 698.795 190.037 698.747 190.076 698.695 190.131 698.649 190.177 693.483 195.377 687.845 201.034 682.606 206.279 674.294 214.605 661.305 216.252 651.305 210.056 635.243 200.097 624.519 182.301 624.519 162.049L624.519 25.4976C624.519 11.4142 613.106 0 599.021 0L25.4976 0C11.4142 0 0 11.4142 0 25.4976L0 162.049C0 182.301 10.7236 200.097 26.7858 210.056 36.7856 216.252 49.7734 214.605 58.0869 206.279 63.3258 201.034 68.9631 195.377 74.1291 190.177 74.1755 190.131 74.2221 190.076 74.2751 190.037 91.3201 173.158 113.836 163.862 137.681 163.862 196.311 163.862 244.16 210.794 245.721 269.066 245.773 270.042 245.801 271.02 245.801 272.002L245.801 325.207C245.801 326.191 245.773 327.167 245.721 328.143 244.16 386.415 196.311 433.348 137.681 433.348 113.843 433.348 91.3201 424.058 74.2751 407.179 74.2221 407.133 74.1755 407.085 74.1291 407.032 68.9631 401.839 63.3258 396.182 58.0869 390.93 49.8001 382.638 36.8653 380.97 26.8721 387.105 23.1537 389.383 19.7008 392.099 16.6067 395.207 6.54042 405.234 0.750321 418.294 0.0664001 432.311 0.0464802 433.254 0 434.191 0 435.132L0 599.021C0 613.106 11.4142 624.519 25.4976 624.519L189.359 624.519C201.397 624.519 224.93 630.509 237.546 651.06 243.708 661.093 242.134 674.054 233.822 682.381 228.636 687.566 223.045 693.164 217.879 698.343 200.661 715.595 191.18 738.476 191.18 762.777 191.18 822.916 239.984 870.319 298.741 870.319L352.544 870.319C412.159 870.319 460.657 821.808 460.657 762.153 460.657 738.104 451.315 715.595 434.337 698.747 429.144 693.522 423.473 687.838 418.214 682.573 409.909 674.253 408.275 661.285 414.469 651.298 424.43 635.236 442.217 624.526 462.469 624.526L599.021 624.526C613.106 624.526 624.519 613.106 624.519 599.028L624.519 435.132C624.519 420.046 630.39 405.897 641.126 395.207 644.22 392.106 647.679 389.39 651.392 387.105 661.392 380.97 674.319 382.638 682.606 390.937 687.845 396.182 693.483 401.839 698.649 407.032 698.702 407.085 698.747 407.133 698.795 407.179 715.839 424.058 738.362 433.348 762.206 433.348 821.821 433.348 870.319 384.836 870.319 325.207L870.319 272.009C870.319 212.375 821.821 163.862 762.206 163.862Z" fill="#FFC000" transform="matrix(-6.13597e-17 -1.00208 1 -6.12323e-17 1903.07 2471.13)"/></g></g></g><path d="M1777 1865.21C1777 1854.05 1786.05 1845 1797.21 1845L2602.79 1845C2613.95 1845 2623 1854.05 2623 1865.21L2623 2261.79C2623 2272.95 2613.95 2282 2602.79 2282L1797.21 2282C1786.05 2282 1777 2272.95 1777 2261.79Z" fill="#FFC000" fill-rule="evenodd"/><text fill="#FFFFFF" font-family="Ubuntu,Ubuntu_MSFontService,sans-serif" font-weight="400" font-size="110" transform="matrix(1 0 0 1 2077.9 2058)">LE04<tspan font-size="83" x="-55" y="104">Structure</tspan><tspan fill="#404040" font-size="55" x="25.7815" y="213">1.5 </tspan><tspan fill="#404040" font-size="55" x="114.011" y="213">-</tspan><tspan fill="#404040" font-size="55" x="143.23" y="213">2 h</tspan></text><g clip-path="url(#clip4)"><g clip-path="url(#clip5)"><g clip-path="url(#clip6)"><path d="M761.602 163.732C737.771 163.732 715.272 173.021 698.242 189.887 698.194 189.926 698.141 189.98 698.096 190.026 692.934 195.222 687.3 200.874 682.065 206.116 673.759 214.435 660.781 216.081 650.789 209.89 634.74 199.938 624.024 182.157 624.024 161.921L624.024 25.4774C624.024 11.4051 612.62 0 598.547 0L25.4774 0C11.4051 0 0 11.4051 0 25.4774L0 161.921C0 182.157 10.7151 199.938 26.7646 209.89 36.7565 216.081 49.734 214.435 58.0408 206.116 63.2756 200.874 68.9085 195.222 74.0704 190.026 74.1168 189.98 74.1633 189.926 74.2163 189.887 91.2478 173.021 113.746 163.732 137.572 163.732 196.156 163.732 243.967 210.627 245.526 268.853 245.579 269.828 245.606 270.805 245.606 271.787L245.606 324.949C245.606 325.933 245.579 326.908 245.526 327.883 243.967 386.109 196.156 433.004 137.572 433.004 113.753 433.004 91.2478 423.722 74.2163 406.856 74.1633 406.81 74.1168 406.763 74.0704 406.71 68.9085 401.521 63.2756 395.869 58.0408 390.62 49.7607 382.335 36.8361 380.669 26.8508 386.799 23.1354 389.075 19.6852 391.789 16.5935 394.894 6.53524 404.913 0.749726 417.963 0.0663475 431.968 0.0464433 432.911 0 433.847 0 434.788L0 598.547C0 612.62 11.4051 624.024 25.4774 624.024L189.209 624.024C201.238 624.024 224.752 630.01 237.358 650.544 243.515 660.569 241.942 673.52 233.637 681.841 228.455 687.021 222.868 692.615 217.706 697.79 200.502 715.028 191.028 737.891 191.028 762.173 191.028 822.264 239.794 869.63 298.504 869.63L352.265 869.63C411.833 869.63 460.292 821.157 460.292 761.55 460.292 737.519 450.958 715.028 433.993 698.194 428.804 692.973 423.138 687.293 417.883 682.033 409.584 673.719 407.952 660.761 414.141 650.782 424.094 634.733 441.867 624.031 462.103 624.031L598.547 624.031C612.62 624.031 624.024 612.62 624.024 598.553L624.024 434.788C624.024 419.714 629.891 405.575 640.618 394.894 643.71 391.796 647.166 389.081 650.876 386.799 660.868 380.669 673.785 382.335 682.065 390.627 687.3 395.869 692.934 401.521 698.096 406.71 698.148 406.763 698.194 406.81 698.242 406.856 715.272 423.722 737.778 433.004 761.602 433.004 821.17 433.004 869.63 384.531 869.63 324.949L869.63 271.793C869.63 212.207 821.17 163.732 761.602 163.732Z" fill="#FFC000" transform="matrix(1.83697e-16 1 -1.00079 1.83843e-16 2496.93 -78.6301)"/></g></g></g><path d="M1777 128.257C1777 117.069 1786.07 108 1797.26 108L2602.74 108C2613.93 108 2623 117.069 2623 128.257L2623 525.743C2623 536.93 2613.93 546 2602.74 546L1797.26 546C1786.07 546 1777 536.93 1777 525.743Z" fill="#FFC000" fill-rule="evenodd"/><text fill="#FFFFFF" font-family="Ubuntu,Ubuntu_MSFontService,sans-serif" font-weight="400" font-size="110" transform="matrix(1 0 0 1 2077.91 321)">LE03<tspan font-size="83" x="-47.2772" y="104">Didactics</tspan><tspan fill="#404040" font-size="55" x="48.1133" y="-158">4 </tspan><tspan fill="#404040" font-size="55" x="91.655" y="-158">-</tspan><tspan fill="#404040" font-size="55" x="120.874" y="-158">6 h</tspan></text><path d="M897 836.137C897 824.463 906.463 815 918.136 815L1401.91 815C1413.59 815 1423.05 824.463 1423.05 836.137L1423.05 1562.86C1423.05 1574.54 1413.59 1584 1401.91 1584L918.136 1584C906.463 1584 897 1574.54 897 1562.86Z" fill="#7F7F7F" fill-rule="evenodd"/><text fill="#FFFFFF" font-family="Ubuntu,Ubuntu_MSFontService,sans-serif" font-weight="400" font-size="128" transform="matrix(1 0 0 1 1010.49 1190)">LU01<tspan font-size="101" x="7.14996" y="127">About</tspan></text><g clip-path="url(#clip7)"><g clip-path="url(#clip8)"><g clip-path="url(#clip9)"><path d="M761.602 163.732C737.771 163.732 715.272 173.021 698.242 189.887 698.194 189.926 698.141 189.98 698.096 190.026 692.934 195.222 687.3 200.874 682.065 206.116 673.759 214.435 660.781 216.081 650.789 209.89 634.74 199.938 624.024 182.157 624.024 161.921L624.024 25.4774C624.024 11.4051 612.62 0 598.547 0L25.4774 0C11.4051 0 0 11.4051 0 25.4774L0 161.921C0 182.157 10.7151 199.938 26.7646 209.89 36.7565 216.081 49.734 214.435 58.0408 206.116 63.2756 200.874 68.9085 195.222 74.0704 190.026 74.1168 189.98 74.1633 189.926 74.2163 189.887 91.2478 173.021 113.746 163.732 137.572 163.732 196.156 163.732 243.967 210.627 245.526 268.853 245.579 269.828 245.606 270.805 245.606 271.787L245.606 324.949C245.606 325.933 245.579 326.908 245.526 327.883 243.967 386.109 196.156 433.004 137.572 433.004 113.753 433.004 91.2478 423.722 74.2163 406.856 74.1633 406.81 74.1168 406.763 74.0704 406.71 68.9085 401.521 63.2756 395.869 58.0408 390.62 49.7607 382.335 36.8361 380.669 26.8508 386.799 23.1354 389.075 19.6852 391.789 16.5935 394.894 6.53524 404.913 0.749726 417.963 0.0663475 431.968 0.0464433 432.911 0 433.847 0 434.788L0 598.547C0 612.62 11.4051 624.024 25.4774 624.024L189.209 624.024C201.238 624.024 224.752 630.01 237.358 650.544 243.515 660.569 241.942 673.52 233.637 681.841 228.455 687.021 222.868 692.615 217.706 697.79 200.502 715.028 191.028 737.891 191.028 762.173 191.028 822.264 239.794 869.63 298.504 869.63L352.265 869.63C411.833 869.63 460.292 821.157 460.292 761.55 460.292 737.519 450.958 715.028 433.993 698.194 428.804 692.973 423.138 687.293 417.883 682.033 409.584 673.719 407.952 660.761 414.141 650.782 424.094 634.733 441.867 624.031 462.103 624.031L598.547 624.031C612.62 624.031 624.024 612.62 624.024 598.553L624.024 434.788C624.024 419.714 629.891 405.575 640.618 394.894 643.71 391.796 647.166 389.081 650.876 386.799 660.868 380.669 673.785 382.335 682.065 390.627 687.3 395.869 692.934 401.521 698.096 406.71 698.148 406.763 698.194 406.81 698.242 406.856 715.272 423.722 737.778 433.004 761.602 433.004 821.17 433.004 869.63 384.531 869.63 324.949L869.63 271.793C869.63 212.207 821.17 163.732 761.602 163.732Z" fill="#7F7F7F" transform="matrix(1 -1.22465e-16 1.22821e-16 1.00291 799.37 901.94)"/></g></g></g><text fill="#404040" font-family="Ubuntu,Ubuntu_MSFontService,sans-serif" font-weight="400" font-size="55" transform="matrix(1 0 0 1 1099.73 1572)">0.5 h</text><g clip-path="url(#clip10)"><g clip-path="url(#clip11)"><g clip-path="url(#clip12)"><path d="M761.602 163.732C737.771 163.732 715.272 173.021 698.242 189.887 698.194 189.926 698.141 189.98 698.096 190.026 692.934 195.222 687.3 200.874 682.065 206.116 673.759 214.435 660.781 216.081 650.789 209.89 634.74 199.938 624.024 182.157 624.024 161.921L624.024 25.4774C624.024 11.4051 612.62 0 598.547 0L25.4774 0C11.4051 0 0 11.4051 0 25.4774L0 161.921C0 182.157 10.7151 199.938 26.7646 209.89 36.7565 216.081 49.734 214.435 58.0408 206.116 63.2756 200.874 68.9085 195.222 74.0704 190.026 74.1168 189.98 74.1633 189.926 74.2163 189.887 91.2478 173.021 113.746 163.732 137.572 163.732 196.156 163.732 243.967 210.627 245.526 268.853 245.579 269.828 245.606 270.805 245.606 271.787L245.606 324.949C245.606 325.933 245.579 326.908 245.526 327.883 243.967 386.109 196.156 433.004 137.572 433.004 113.753 433.004 91.2478 423.722 74.2163 406.856 74.1633 406.81 74.1168 406.763 74.0704 406.71 68.9085 401.521 63.2756 395.869 58.0408 390.62 49.7607 382.335 36.8361 380.669 26.8508 386.799 23.1354 389.075 19.6852 391.789 16.5935 394.894 6.53524 404.913 0.749726 417.963 0.0663475 431.968 0.0464433 432.911 0 433.847 0 434.788L0 598.547C0 612.62 11.4051 624.024 25.4774 624.024L189.209 624.024C201.238 624.024 224.752 630.01 237.358 650.544 243.515 660.569 241.942 673.52 233.637 681.841 228.455 687.021 222.868 692.615 217.706 697.79 200.502 715.028 191.028 737.891 191.028 762.173 191.028 822.264 239.794 869.63 298.504 869.63L352.265 869.63C411.833 869.63 460.292 821.157 460.292 761.55 460.292 737.519 450.958 715.028 433.993 698.194 428.804 692.973 423.138 687.293 417.883 682.033 409.584 673.719 407.952 660.761 414.141 650.782 424.094 634.733 441.867 624.031 462.103 624.031L598.547 624.031C612.62 624.031 624.024 612.62 624.024 598.553L624.024 434.788C624.024 419.714 629.891 405.575 640.618 394.894 643.71 391.796 647.166 389.081 650.876 386.799 660.868 380.669 673.785 382.335 682.065 390.627 687.3 395.869 692.934 401.521 698.096 406.71 698.148 406.763 698.194 406.81 698.242 406.856 715.272 423.722 737.778 433.004 761.602 433.004 821.17 433.004 869.63 384.531 869.63 324.949L869.63 271.793C869.63 212.207 821.17 163.732 761.602 163.732Z" fill="#FFC000" transform="matrix(-1 0 0 -1.00291 3602.63 1535.06)"/></g></g></g><path d="M0 21.0945C-6.11901e-15 9.44434 9.44436-3.0595e-15 21.0946 0L503.905 0C515.556-6.119e-15 525 9.44434 525 21.0945L525 747.906C525 759.556 515.556 769 503.905 769L21.0946 769C9.44436 769-3.0595e-15 759.556 0 747.906Z" fill="#FFC000" fill-rule="evenodd" transform="matrix(-1 0 0 1 3504 853)"/><text fill="#FFFFFF" font-family="Ubuntu,Ubuntu_MSFontService,sans-serif" font-weight="400" font-size="128" transform="matrix(1 0 0 1 3099.23 1200)">LE0<tspan font-size="128" x="211.979" y="0">5</tspan><tspan font-size="73" x="-49.5689" y="99">Scenarios &amp; </tspan><tspan font-size="73" x="-11.7563" y="187">Exercises</tspan><tspan fill="#404040" font-size="55" x="67.7376" y="410">3 </tspan><tspan fill="#404040" font-size="55" x="111.279" y="410">-</tspan><tspan fill="#404040" font-size="55" x="140.498" y="410">4 </tspan><tspan fill="#404040" font-size="55" x="184.04" y="410">h</tspan></text></g></svg>