<?xml version="1.0" encoding="UTF-8" standalone="no"?>
<svg
   width="900"
   height="600"
   overflow="hidden"
   version="1.1"
   id="svg282"
   sodipodi:docname="273849660-dffffb90-8086-4efd-9d50-4e2004412ac5.svg"
   inkscape:version="1.3 (1:1.3+202307231459+0e150ed6c4)"
   xmlns:inkscape="http://www.inkscape.org/namespaces/inkscape"
   xmlns:sodipodi="http://sodipodi.sourceforge.net/DTD/sodipodi-0.dtd"
   xmlns="http://www.w3.org/2000/svg"
   xmlns:svg="http://www.w3.org/2000/svg">
  <sodipodi:namedview
     id="namedview284"
     pagecolor="#505050"
     bordercolor="#eeeeee"
     borderopacity="1"
     inkscape:showpageshadow="0"
     inkscape:pageopacity="0"
     inkscape:pagecheckerboard="0"
     inkscape:deskcolor="#505050"
     showgrid="false"
     inkscape:zoom="0.41680632"
     inkscape:cx="731.75474"
     inkscape:cy="131.95577"
     inkscape:window-width="1848"
     inkscape:window-height="1016"
     inkscape:window-x="72"
     inkscape:window-y="27"
     inkscape:window-maximized="1"
     inkscape:current-layer="g547" />
  <defs
     id="defs174">
    <clipPath
       id="clip0">
      <rect
         x="419"
         y="166"
         width="138"
         height="103"
         id="rect144" />
    </clipPath>
    <clipPath
       id="clip1">
      <rect
         x="419"
         y="166"
         width="138"
         height="103"
         id="rect147" />
    </clipPath>
    <clipPath
       id="clip2">
      <rect
         x="422"
         y="348"
         width="138"
         height="103"
         id="rect150" />
    </clipPath>
    <clipPath
       id="clip3">
      <rect
         x="422"
         y="348"
         width="138"
         height="103"
         id="rect153" />
    </clipPath>
    <clipPath
       id="clip4">
      <rect
         x="749"
         y="166"
         width="138"
         height="102"
         id="rect156" />
    </clipPath>
    <clipPath
       id="clip5">
      <rect
         x="749"
         y="166"
         width="138"
         height="103"
         id="rect159" />
    </clipPath>
    <clipPath
       id="clip6">
      <rect
         x="754"
         y="348"
         width="138"
         height="103"
         id="rect162" />
    </clipPath>
    <clipPath
       id="clip7">
      <rect
         x="754"
         y="348"
         width="138"
         height="103"
         id="rect165" />
    </clipPath>
    <clipPath
       id="clip8">
      <rect
         x="280"
         y="239"
         width="101"
         height="138"
         id="rect168" />
    </clipPath>
    <clipPath
       id="clip9">
      <rect
         x="280"
         y="239"
         width="101"
         height="138"
         id="rect171" />
    </clipPath>
  </defs>
  <g
     id="g547"
     transform="translate(-15.48707,23.385028)">
    <path
       d="m 195.48708,171.16497 c 0,-3.618 2.932,-6.55 6.55,-6.55 h 679.89998 c 3.62,0 6.55,2.932 6.55,6.55 v 210.9 c 0,3.618 -2.93,6.55 -6.55,6.55 H 202.03708 c -3.618,0 -6.55,-2.932 -6.55,-6.55 z"
       fill="#404040"
       fill-rule="evenodd"
       id="path178" />
    <text
       fill="#ffffff"
       font-family="'Arial Black', 'Arial Black_MSFontService', sans-serif"
       font-weight="900"
       font-size="32px"
       id="text180"
       x="351.99811"
       y="287.61499">LU02</text>
    <text
       fill="#ffffff"
       font-family="'Arial Narrow', 'Arial Narrow_MSFontService', sans-serif"
       font-weight="400"
       font-stretch="condensed"
       font-size="27px"
       id="text182"
       x="452.50507"
       y="287.61499">Foundation Level Curriculum</text>
    <g
       clip-path="url(#clip0)"
       id="g190"
       transform="translate(-114.51292,-31.385023)">
      <g
         clip-path="url(#clip1)"
         id="g188">
        <g
           id="g186">
          <path
             d="m 221.233,47.5616 c -6.922,0 -13.458,2.6982 -18.405,7.5975 -0.014,0.0113 -0.029,0.0271 -0.042,0.0405 -1.5,1.5092 -3.136,3.1512 -4.657,4.6738 -2.413,2.4166 -6.183,2.8947 -9.085,1.0963 -4.662,-2.8907 -7.775,-8.056 -7.775,-13.9342 V 7.40079 C 181.269,3.31301 177.956,0 173.868,0 H 7.40079 C 3.31301,0 0,3.31301 0,7.40079 V 47.0355 c 0,5.8782 3.11257,11.0435 7.77468,13.9342 2.90252,1.7984 6.67222,1.3203 9.08522,-1.0963 1.5207,-1.5226 3.1569,-3.1646 4.6564,-4.6738 0.0134,-0.0134 0.027,-0.0292 0.0424,-0.0405 4.9473,-4.8993 11.4828,-7.5975 18.4037,-7.5975 17.0178,0 30.9061,13.6222 31.359,30.536 0.0153,0.2832 0.0232,0.5669 0.0232,0.8521 v 15.443 c 0,0.2856 -0.0079,0.5688 -0.0232,0.8521 -0.4529,16.9142 -14.3412,30.5362 -31.359,30.5362 -6.919,0 -13.4564,-2.696 -18.4037,-7.596 -0.0154,-0.013 -0.029,-0.027 -0.0424,-0.042 -1.4995,-1.507 -3.1357,-3.149 -4.6564,-4.674 -2.4052,-2.407 -6.1596,-2.891 -9.06015,-1.11 -1.07929,0.661 -2.0815,1.449 -2.9796,2.351 -2.92177,2.911 -4.602366,6.701 -4.8008771,10.77 C 0.0134911,125.754 0,126.026 0,126.299 v 47.569 c 0,4.088 3.31301,7.401 7.40079,7.401 H 54.9622 c 3.4942,0 10.3246,1.739 13.9865,7.704 1.7886,2.912 1.3317,6.674 -1.081,9.091 -1.5053,1.505 -3.128,3.13 -4.6274,4.633 -4.9975,5.007 -7.7496,11.649 -7.7496,18.702 0,17.456 14.1656,31.215 31.2199,31.215 h 15.6164 c 17.304,0 31.381,-14.081 31.381,-31.396 0,-6.98 -2.712,-13.514 -7.64,-18.404 -1.507,-1.516 -3.153,-3.166 -4.68,-4.694 -2.41,-2.415 -2.885,-6.179 -1.087,-9.078 2.892,-4.662 8.054,-7.771 13.933,-7.771 h 39.634 c 4.088,0 7.401,-3.315 7.401,-7.401 v -47.571 c 0,-4.379 1.704,-8.486 4.82,-11.589 0.898,-0.9 1.902,-1.688 2.98,-2.351 2.903,-1.781 6.655,-1.297 9.06,1.112 1.521,1.523 3.157,3.165 4.657,4.672 0.015,0.015 0.028,0.029 0.042,0.042 4.947,4.9 11.485,7.596 18.405,7.596 17.304,0 31.381,-14.081 31.381,-31.3883 v -15.441 c 0,-17.309 -14.077,-31.3901 -31.381,-31.3901 z"
             fill="#ffc000"
             transform="matrix(0,1.00902,-1,0,574.685,13.1084)"
             id="path184" />
        </g>
      </g>
    </g>
    <path
       d="m 251.48708,43.488675 c 0,-3.2439 2.63,-5.8737 5.874,-5.8737 h 234.252 c 3.244,0 5.874,2.6298 5.874,5.8737 V 158.74097 c 0,3.244 -2.63,5.874 -5.874,5.874 h -234.252 c -3.244,0 -5.874,-2.63 -5.874,-5.874 z"
       fill="#ffc000"
       fill-rule="evenodd"
       id="path192" />
    <text
       fill="#ffffff"
       font-family="'Arial Black', 'Arial Black_MSFontService', sans-serif"
       font-weight="900"
       font-size="32px"
       id="text194"
       x="330.72406"
       y="95.614975">LU03</text>
    <text
       fill="#ffffff"
       font-family="'Arial Narrow', 'Arial Narrow_MSFontService', sans-serif"
       font-weight="400"
       font-stretch="condensed"
       font-size="27px"
       id="text196"
       x="329.89111"
       y="129.61497">Didactics</text>
    <g
       clip-path="url(#clip2)"
       id="g204"
       transform="translate(-114.51292,-31.385023)">
      <g
         clip-path="url(#clip3)"
         id="g202">
        <g
           id="g200">
          <path
             d="m 221.233,47.5616 c -6.922,0 -13.458,2.6982 -18.405,7.5975 -0.014,0.0113 -0.029,0.0271 -0.042,0.0405 -1.5,1.5092 -3.136,3.1512 -4.657,4.6738 -2.413,2.4166 -6.183,2.8947 -9.085,1.0963 -4.662,-2.8907 -7.775,-8.056 -7.775,-13.9342 V 7.40079 C 181.269,3.31301 177.956,0 173.868,0 H 7.40079 C 3.31301,0 0,3.31301 0,7.40079 V 47.0355 c 0,5.8782 3.11257,11.0435 7.77468,13.9342 2.90252,1.7984 6.67222,1.3203 9.08522,-1.0963 1.5207,-1.5226 3.1569,-3.1646 4.6564,-4.6738 0.0134,-0.0134 0.027,-0.0292 0.0424,-0.0405 4.9473,-4.8993 11.4828,-7.5975 18.4037,-7.5975 17.0178,0 30.9061,13.6222 31.359,30.536 0.0153,0.2832 0.0232,0.5669 0.0232,0.8521 v 15.443 c 0,0.2856 -0.0079,0.5688 -0.0232,0.8521 -0.4529,16.9142 -14.3412,30.5362 -31.359,30.5362 -6.919,0 -13.4564,-2.696 -18.4037,-7.596 -0.0154,-0.013 -0.029,-0.027 -0.0424,-0.042 -1.4995,-1.507 -3.1357,-3.149 -4.6564,-4.674 -2.4052,-2.407 -6.1596,-2.891 -9.06015,-1.11 -1.07929,0.661 -2.0815,1.449 -2.9796,2.351 -2.92177,2.911 -4.602366,6.701 -4.8008771,10.77 C 0.0134911,125.754 0,126.026 0,126.299 v 47.569 c 0,4.088 3.31301,7.401 7.40079,7.401 H 54.9622 c 3.4942,0 10.3246,1.739 13.9865,7.704 1.7886,2.912 1.3317,6.674 -1.081,9.091 -1.5053,1.505 -3.128,3.13 -4.6274,4.633 -4.9975,5.007 -7.7496,11.649 -7.7496,18.702 0,17.456 14.1656,31.215 31.2199,31.215 h 15.6164 c 17.304,0 31.381,-14.081 31.381,-31.396 0,-6.98 -2.712,-13.514 -7.64,-18.404 -1.507,-1.516 -3.153,-3.166 -4.68,-4.694 -2.41,-2.415 -2.885,-6.179 -1.087,-9.078 2.892,-4.662 8.054,-7.771 13.933,-7.771 h 39.634 c 4.088,0 7.401,-3.315 7.401,-7.401 v -47.571 c 0,-4.379 1.704,-8.486 4.82,-11.589 0.898,-0.9 1.902,-1.688 2.98,-2.351 2.903,-1.781 6.655,-1.297 9.06,1.112 1.521,1.523 3.157,3.165 4.657,4.672 0.015,0.015 0.028,0.029 0.042,0.042 4.947,4.9 11.485,7.596 18.405,7.596 17.304,0 31.381,-14.081 31.381,-31.3883 v -15.441 c 0,-17.309 -14.077,-31.3901 -31.381,-31.3901 z"
             fill="#ffc000"
             transform="matrix(0,-1.00902,1,0,405.314,602.892)"
             id="path198" />
        </g>
      </g>
    </g>
    <path
       d="m 253.48708,394.48897 c 0,-3.244 2.63,-5.874 5.874,-5.874 h 234.252 c 3.244,0 5.874,2.63 5.874,5.874 v 115.252 c 0,3.244 -2.63,5.874 -5.874,5.874 h -234.252 c -3.244,0 -5.874,-2.63 -5.874,-5.874 z"
       fill="#ffc000"
       fill-rule="evenodd"
       id="path206" />
    <text
       fill="#ffffff"
       font-family="'Arial Black', 'Arial Black_MSFontService', sans-serif"
       font-weight="900"
       font-size="32px"
       id="text208"
       x="333.12408"
       y="446.61496">LU04</text>
    <text
       fill="#ffffff"
       font-family="'Arial Narrow', 'Arial Narrow_MSFontService', sans-serif"
       font-weight="400"
       font-stretch="condensed"
       font-size="27px"
       id="text210"
       x="332.29108"
       y="480.61496">Structure</text>
    <g
       clip-path="url(#clip4)"
       id="g218"
       transform="translate(-114.51292,-31.385023)">
      <g
         clip-path="url(#clip5)"
         id="g216">
        <g
           id="g214">
          <path
             d="m 222.848,47.9088 c -6.973,0 -13.556,2.7178 -18.539,7.6529 -0.014,0.0114 -0.03,0.0273 -0.043,0.0408 -1.511,1.5203 -3.159,3.1742 -4.691,4.7079 -2.43,2.4343 -6.227,2.9159 -9.151,1.1043 -4.696,-2.9118 -7.832,-8.1148 -7.832,-14.0359 V 7.45481 C 182.592,3.33719 179.255,0 175.137,0 H 7.45481 C 3.33719,0 0,3.33719 0,7.45481 V 47.3788 c 0,5.9211 3.13529,11.1241 7.83143,14.0359 2.92367,1.8116 6.72097,1.33 9.15157,-1.1043 1.5317,-1.5337 3.1799,-3.1876 4.6903,-4.7079 0.0136,-0.0135 0.0272,-0.0294 0.0427,-0.0408 4.9835,-4.9351 11.5667,-7.6529 18.5381,-7.6529 17.142,0 31.1317,13.7216 31.5879,30.7589 0.0154,0.2852 0.0234,0.571 0.0234,0.8583 v 15.5557 c 0,0.2877 -0.008,0.573 -0.0234,0.8583 -0.4562,17.037 -14.4459,30.759 -31.5879,30.759 -6.9695,0 -13.5546,-2.716 -18.5381,-7.651 -0.0155,-0.014 -0.0291,-0.027 -0.0427,-0.043 -1.5104,-1.518 -3.1586,-3.172 -4.6903,-4.708 -2.4228,-2.424 -6.2046,-2.912 -9.12632,-1.118 -1.08716,0.666 -2.09669,1.46 -3.00135,2.369 -2.94309,2.931 -4.635957,6.75 -4.8359164,10.848 C 0.0135895,126.672 0,126.946 0,127.221 v 47.916 c 0,4.118 3.33719,7.455 7.45481,7.455 H 55.3634 c 3.5197,0 10.4,1.752 14.0886,7.76 1.8016,2.933 1.3414,6.723 -1.0889,9.158 -1.5163,1.515 -3.1509,3.152 -4.6612,4.666 -5.034,5.044 -7.8062,11.734 -7.8062,18.839 0,17.583 14.269,31.443 31.4479,31.443 h 15.7304 c 17.43,0 31.61,-14.184 31.61,-31.625 0,-7.032 -2.732,-13.613 -7.696,-18.538 -1.518,-1.528 -3.176,-3.19 -4.714,-4.729 -2.428,-2.433 -2.906,-6.224 -1.095,-9.144 2.913,-4.696 8.113,-7.828 14.034,-7.828 h 39.924 c 4.118,0 7.455,-3.339 7.455,-7.455 v -47.918 c 0,-4.411 1.717,-8.548 4.856,-11.673 0.904,-0.907 1.916,-1.701 3.001,-2.369 2.924,-1.794 6.703,-1.306 9.126,1.12 1.532,1.534 3.18,3.188 4.691,4.706 0.015,0.016 0.029,0.029 0.043,0.043 4.983,4.935 11.568,7.651 18.539,7.651 17.43,0 31.61,-14.184 31.61,-31.6173 V 79.5279 c 0,-17.4353 -14.18,-31.6191 -31.61,-31.6191 z"
             fill="#ffc000"
             transform="matrix(0,1.00171,-1,0,904.815,13.1083)"
             id="path212" />
        </g>
      </g>
    </g>
    <path
       d="m 580.48708,43.488675 c 0,-3.2439 2.63,-5.8737 5.874,-5.8737 h 234.25198 c 3.244,0 5.874,2.6298 5.874,5.8737 V 158.74097 c 0,3.244 -2.63,5.874 -5.874,5.874 H 586.36108 c -3.244,0 -5.874,-2.63 -5.874,-5.874 z"
       fill="#ffc000"
       fill-rule="evenodd"
       id="path220" />
    <text
       fill="#ffffff"
       font-family="'Arial Black', 'Arial Black_MSFontService', sans-serif"
       font-weight="900"
       font-size="32px"
       id="text222"
       x="659.78809"
       y="95.614975">LU05</text>
    <text
       fill="#ffffff"
       font-family="'Arial Narrow', 'Arial Narrow_MSFontService', sans-serif"
       font-weight="400"
       font-stretch="condensed"
       font-size="27px"
       id="text224"
       x="593.70807"
       y="129.61497">Scenarios &amp; Exercises</text>
    <g
       clip-path="url(#clip6)"
       id="g232"
       transform="translate(-114.51292,-31.385023)">
      <g
         clip-path="url(#clip7)"
         id="g230">
        <g
           id="g228">
          <path
             d="m 221.233,47.5616 c -6.922,0 -13.458,2.6982 -18.405,7.5975 -0.014,0.0113 -0.029,0.0271 -0.042,0.0405 -1.5,1.5092 -3.136,3.1512 -4.657,4.6738 -2.413,2.4166 -6.183,2.8947 -9.085,1.0963 -4.662,-2.8907 -7.775,-8.056 -7.775,-13.9342 V 7.40079 C 181.269,3.31301 177.956,0 173.868,0 H 7.40079 C 3.31301,0 0,3.31301 0,7.40079 V 47.0355 c 0,5.8782 3.11257,11.0435 7.77468,13.9342 2.90252,1.7984 6.67222,1.3203 9.08522,-1.0963 1.5207,-1.5226 3.1569,-3.1646 4.6564,-4.6738 0.0134,-0.0134 0.027,-0.0292 0.0424,-0.0405 4.9473,-4.8993 11.4828,-7.5975 18.4037,-7.5975 17.0178,0 30.9061,13.6222 31.359,30.536 0.0153,0.2832 0.0232,0.5669 0.0232,0.8521 v 15.443 c 0,0.2856 -0.0079,0.5688 -0.0232,0.8521 -0.4529,16.9142 -14.3412,30.5362 -31.359,30.5362 -6.919,0 -13.4564,-2.696 -18.4037,-7.596 -0.0154,-0.013 -0.029,-0.027 -0.0424,-0.042 -1.4995,-1.507 -3.1357,-3.149 -4.6564,-4.674 -2.4052,-2.407 -6.1596,-2.891 -9.06015,-1.11 -1.07929,0.661 -2.0815,1.449 -2.9796,2.351 -2.92177,2.911 -4.602366,6.701 -4.8008771,10.77 C 0.0134911,125.754 0,126.026 0,126.299 v 47.569 c 0,4.088 3.31301,7.401 7.40079,7.401 H 54.9622 c 3.4942,0 10.3246,1.739 13.9865,7.704 1.7886,2.912 1.3317,6.674 -1.081,9.091 -1.5053,1.505 -3.128,3.13 -4.6274,4.633 -4.9975,5.007 -7.7496,11.649 -7.7496,18.702 0,17.456 14.1656,31.215 31.2199,31.215 h 15.6164 c 17.304,0 31.381,-14.081 31.381,-31.396 0,-6.98 -2.712,-13.514 -7.64,-18.404 -1.507,-1.516 -3.153,-3.166 -4.68,-4.694 -2.41,-2.415 -2.885,-6.179 -1.087,-9.078 2.892,-4.662 8.054,-7.771 13.933,-7.771 h 39.634 c 4.088,0 7.401,-3.315 7.401,-7.401 v -47.571 c 0,-4.379 1.704,-8.486 4.82,-11.589 0.898,-0.9 1.902,-1.688 2.98,-2.351 2.903,-1.781 6.655,-1.297 9.06,1.112 1.521,1.523 3.157,3.165 4.657,4.672 0.015,0.015 0.028,0.029 0.042,0.042 4.947,4.9 11.485,7.596 18.405,7.596 17.304,0 31.381,-14.081 31.381,-31.3883 v -15.441 c 0,-17.309 -14.077,-31.3901 -31.381,-31.3901 z"
             fill="#7f7f7f"
             transform="matrix(0,-1.00902,1,0,737.314,602.892)"
             id="path226" />
        </g>
      </g>
    </g>
    <path
       d="m 585.48708,394.48897 c 0,-3.244 2.63,-5.874 5.874,-5.874 h 234.25198 c 3.244,0 5.874,2.63 5.874,5.874 v 115.252 c 0,3.244 -2.63,5.874 -5.874,5.874 H 591.36108 c -3.244,0 -5.874,-2.63 -5.874,-5.874 z"
       fill="#7f7f7f"
       fill-rule="evenodd"
       id="path234" />
    <text
       fill="#ffffff"
       font-family="'Arial Black', 'Arial Black_MSFontService', sans-serif"
       font-weight="900"
       font-size="32px"
       id="text236"
       x="665.24506"
       y="446.61496">LU06</text>
    <text
       fill="#ffffff"
       font-family="'Arial Narrow', 'Arial Narrow_MSFontService', sans-serif"
       font-weight="400"
       font-stretch="condensed"
       font-size="27px"
       id="text238"
       x="666.24506"
       y="480.61496">Logistics</text>
    <path
       d="m 42.48708,170.76297 c 0,-3.396 2.752,-6.148 6.148,-6.148 h 140.704 c 3.396,0 6.148,2.752 6.148,6.148 v 211.704 c 0,3.396 -2.752,6.148 -6.148,6.148 h -140.704 c -3.396,0 -6.148,-2.752 -6.148,-6.148 z"
       fill="#7f7f7f"
       fill-rule="evenodd"
       id="path240" />
    <text
       fill="#ffffff"
       font-family="'Arial Black', 'Arial Black_MSFontService', sans-serif"
       font-weight="900"
       font-size="32px"
       id="text242"
       x="73.879082"
       y="271.61499">LU01</text>
    <text
       fill="#ffffff"
       font-family="'Arial Narrow', 'Arial Narrow_MSFontService', sans-serif"
       font-weight="400"
       font-stretch="condensed"
       font-size="27px"
       id="text244"
       x="90.213066"
       y="305.61499">About</text>
    <g
       clip-path="url(#clip8)"
       id="g252"
       transform="translate(-114.51292,-31.385023)">
      <g
         clip-path="url(#clip9)"
         id="g250">
        <g
           id="g248">
          <path
             d="m 221.04,47.52 c -6.917,0 -13.446,2.6958 -18.389,7.5908 -0.014,0.0114 -0.029,0.0272 -0.043,0.0405 -1.498,1.5079 -3.133,3.1485 -4.652,4.6697 -2.411,2.4145 -6.177,2.8922 -9.078,1.0954 -4.657,-2.8883 -7.767,-8.049 -7.767,-13.9221 V 7.39432 C 181.111,3.31011 177.801,0 173.716,0 H 7.39432 C 3.31011,0 0,3.31011 0,7.39432 V 46.9943 c 0,5.8731 3.10985,11.0338 7.76788,13.9221 2.89992,1.7968 6.66642,1.3191 9.07732,-1.0954 1.5193,-1.5212 3.1541,-3.1618 4.6523,-4.6697 0.0134,-0.0133 0.0269,-0.0291 0.0423,-0.0405 4.943,-4.895 11.4728,-7.5908 18.3876,-7.5908 17.0029,0 30.8791,13.6103 31.3316,30.5093 0.0153,0.2829 0.0232,0.5664 0.0232,0.8513 v 15.4295 c 0,0.2854 -0.0079,0.5684 -0.0232,0.8513 -0.4525,16.8986 -14.3287,30.5096 -31.3316,30.5096 -6.9129,0 -13.4446,-2.694 -18.3876,-7.589 -0.0154,-0.013 -0.0289,-0.027 -0.0423,-0.043 -1.4982,-1.506 -3.133,-3.146 -4.6523,-4.669 -2.4032,-2.405 -6.1542,-2.889 -9.05228,-1.109 -1.07834,0.66 -2.07968,1.448 -2.97699,2.349 -2.91921,2.908 -4.598337,6.695 -4.796674,10.76 C 0.0134793,125.644 0,125.915 0,126.188 v 47.528 c 0,4.085 3.31011,7.395 7.39432,7.395 H 54.9142 c 3.4911,0 10.3155,1.737 13.9742,7.697 1.787,2.909 1.3305,6.668 -1.08,9.083 -1.504,1.503 -3.1254,3.127 -4.6235,4.629 -4.9931,5.003 -7.7428,11.638 -7.7428,18.685 0,17.441 14.1532,31.188 31.1927,31.188 h 15.6032 c 17.288,0 31.353,-14.069 31.353,-31.368 0,-6.975 -2.71,-13.502 -7.633,-18.388 -1.506,-1.515 -3.151,-3.164 -4.676,-4.691 -2.408,-2.413 -2.882,-6.173 -1.086,-9.069 2.889,-4.658 8.047,-7.765 13.92,-7.765 h 39.6 c 4.085,0 7.395,-3.311 7.395,-7.394 v -47.53 c 0,-4.375 1.702,-8.478 4.816,-11.578 0.897,-0.899 1.9,-1.687 2.977,-2.349 2.9,-1.78 6.649,-1.296 9.052,1.111 1.519,1.521 3.154,3.161 4.652,4.667 0.016,0.016 0.029,0.03 0.043,0.043 4.943,4.895 11.474,7.589 18.389,7.589 17.288,0 31.353,-14.069 31.353,-31.3609 V 78.8826 C 252.393,61.5888 238.328,47.52 221.04,47.52 Z"
             fill="#7f7f7f"
             transform="matrix(1,0,0,1.00818,128.607,221.185)"
             id="path246" />
        </g>
      </g>
    </g>
    <text
       fill="#ffffff"
       font-family="'Arial Black', 'Arial Black_MSFontService', sans-serif"
       font-weight="900"
       font-size="16px"
       id="text254"
       x="342.04108"
       y="511.61496">1.5</text>
    <text
       fill="#ffffff"
       font-family="'Arial Black', 'Arial Black_MSFontService', sans-serif"
       font-weight="900"
       font-size="16px"
       id="text256"
       x="374.04108"
       y="511.61496">-</text>
    <text
       fill="#ffffff"
       font-family="'Arial Black', 'Arial Black_MSFontService', sans-serif"
       font-weight="900"
       font-size="16px"
       id="text258"
       x="384.70807"
       y="511.61496">2 h</text>
    <text
       fill="#ffffff"
       font-family="'Arial Black', 'Arial Black_MSFontService', sans-serif"
       font-weight="900"
       font-size="16px"
       id="text260"
       x="676.70807"
       y="52.614979">3</text>
    <text
       fill="#ffffff"
       font-family="'Arial Black', 'Arial Black_MSFontService', sans-serif"
       font-weight="900"
       font-size="16px"
       id="text262"
       x="692.70807"
       y="52.614979">-</text>
    <text
       fill="#ffffff"
       font-family="'Arial Black', 'Arial Black_MSFontService', sans-serif"
       font-weight="900"
       font-size="16px"
       id="text264"
       x="703.37408"
       y="52.614979">4 h</text>
    <text
       fill="#ffffff"
       font-family="'Arial Black', 'Arial Black_MSFontService', sans-serif"
       font-weight="900"
       font-size="16px"
       id="text266"
       x="347.64111"
       y="52.614979">4</text>
    <text
       fill="#ffffff"
       font-family="'Arial Black', 'Arial Black_MSFontService', sans-serif"
       font-weight="900"
       font-size="16px"
       id="text268"
       x="363.64111"
       y="52.614979">-</text>
    <text
       fill="#ffffff"
       font-family="'Arial Black', 'Arial Black_MSFontService', sans-serif"
       font-weight="900"
       font-size="16px"
       id="text270"
       x="374.30811"
       y="52.614979">6 h</text>
    <text
       fill="#ffffff"
       font-family="'Arial Black', 'Arial Black_MSFontService', sans-serif"
       font-weight="900"
       font-size="16px"
       id="text272"
       x="687.49408"
       y="511.61496">0.5 h</text>
    <text
       fill="#ffffff"
       font-family="'Arial Black', 'Arial Black_MSFontService', sans-serif"
       font-weight="900"
       font-size="16px"
       id="text274"
       x="97.341087"
       y="383.61499">0.5 h</text>
    <text
       fill="#ffffff"
       font-family="'Arial Black', 'Arial Black_MSFontService', sans-serif"
       font-weight="900"
       font-size="16px"
       id="text276"
       x="523.8681"
       y="383.61499">12</text>
    <text
       fill="#ffffff"
       font-family="'Arial Black', 'Arial Black_MSFontService', sans-serif"
       font-weight="900"
       font-size="16px"
       id="text278"
       x="550.5351"
       y="383.61499">h</text>
  </g>
</svg>
