<svg width="2469" height="2338" xmlns="http://www.w3.org/2000/svg" xmlns:xlink="http://www.w3.org/1999/xlink" xml:space="preserve" overflow="hidden"><defs><clipPath id="clip0"><rect x="1009" y="68" width="2469" height="2338"/></clipPath><clipPath id="clip1"><rect x="2007" y="1641" width="474" height="348"/></clipPath><clipPath id="clip2"><rect x="2007" y="1641" width="474" height="348"/></clipPath><clipPath id="clip3"><rect x="2026" y="486" width="473" height="349"/></clipPath><clipPath id="clip4"><rect x="2026" y="486" width="473" height="349"/></clipPath><clipPath id="clip5"><rect x="1491" y="972" width="351" height="473"/></clipPath><clipPath id="clip6"><rect x="1491" y="972" width="351" height="473"/></clipPath><clipPath id="clip7"><rect x="2648" y="972" width="350" height="473"/></clipPath><clipPath id="clip8"><rect x="2648" y="972" width="350" height="473"/></clipPath></defs><g clip-path="url(#clip0)" transform="translate(-1009 -68)"><path d="M1594 625.012C1594 604.019 1611.02 587 1632.01 587L2855.99 587C2876.98 587 2894 604.019 2894 625.012L2894 1848.99C2894 1869.98 2876.98 1887 2855.99 1887L1632.01 1887C1611.02 1887 1594 1869.98 1594 1848.99Z" fill="#404040" fill-rule="evenodd"/><text fill="#FFFFFF" font-family="Roboto Black,Roboto Black_MSFontService,sans-serif" font-weight="900" font-size="110" transform="matrix(1 0 0 1 2114 1172)">LU02</text><text fill="#FFFFFF" font-family="Roboto,Roboto_MSFontService,sans-serif" font-weight="400" font-size="92" transform="matrix(1 0 0 1 1896.02 1291)">Foundation Level</text><text fill="#FFFFFF" font-family="Roboto,Roboto_MSFontService,sans-serif" font-weight="400" font-size="92" transform="matrix(1 0 0 1 2032.64 1401)">Curriculum</text><text fill="#FFFFFF" font-family="Roboto,Roboto_MSFontService,sans-serif" font-weight="400" font-size="55" transform="matrix(1 0 0 1 2191.07 1564)">12 h</text><g clip-path="url(#clip1)"><g clip-path="url(#clip2)"><g><path d="M761.602 163.732C737.771 163.732 715.272 173.021 698.242 189.887 698.194 189.926 698.141 189.98 698.096 190.026 692.934 195.222 687.3 200.874 682.065 206.116 673.759 214.435 660.781 216.081 650.789 209.89 634.74 199.938 624.024 182.157 624.024 161.921L624.024 25.4774C624.024 11.4051 612.62 0 598.547 0L25.4774 0C11.4051 0 0 11.4051 0 25.4774L0 161.921C0 182.157 10.7151 199.938 26.7646 209.89 36.7565 216.081 49.734 214.435 58.0408 206.116 63.2756 200.874 68.9085 195.222 74.0704 190.026 74.1168 189.98 74.1633 189.926 74.2163 189.887 91.2478 173.021 113.746 163.732 137.572 163.732 196.156 163.732 243.967 210.627 245.526 268.853 245.579 269.828 245.606 270.805 245.606 271.787L245.606 324.949C245.606 325.933 245.579 326.908 245.526 327.883 243.967 386.109 196.156 433.004 137.572 433.004 113.753 433.004 91.2478 423.722 74.2163 406.856 74.1633 406.81 74.1168 406.763 74.0704 406.71 68.9085 401.521 63.2756 395.869 58.0408 390.62 49.7607 382.335 36.8361 380.669 26.8508 386.799 23.1354 389.075 19.6852 391.789 16.5935 394.894 6.53524 404.913 0.749726 417.963 0.0663475 431.968 0.0464433 432.911 0 433.847 0 434.788L0 598.547C0 612.62 11.4051 624.024 25.4774 624.024L189.209 624.024C201.238 624.024 224.752 630.01 237.358 650.544 243.515 660.569 241.942 673.52 233.637 681.841 228.455 687.021 222.868 692.615 217.706 697.79 200.502 715.028 191.028 737.891 191.028 762.173 191.028 822.264 239.794 869.63 298.504 869.63L352.265 869.63C411.833 869.63 460.292 821.157 460.292 761.55 460.292 737.519 450.958 715.028 433.993 698.194 428.804 692.973 423.138 687.293 417.883 682.033 409.584 673.719 407.952 660.761 414.141 650.782 424.094 634.733 441.867 624.031 462.103 624.031L598.547 624.031C612.62 624.031 624.024 612.62 624.024 598.553L624.024 434.788C624.024 419.714 629.891 405.575 640.618 394.894 643.71 391.796 647.166 389.081 650.876 386.799 660.868 380.669 673.785 382.335 682.065 390.627 687.3 395.869 692.934 401.521 698.096 406.71 698.148 406.763 698.194 406.81 698.242 406.856 715.272 423.722 737.778 433.004 761.602 433.004 821.17 433.004 869.63 384.531 869.63 324.949L869.63 271.793C869.63 212.207 821.17 163.732 761.602 163.732Z" fill="#FFC000" transform="matrix(-6.12323e-17 -1 1.00079 -6.12809e-17 1947.07 2510.63)"/></g></g></g><path d="M1821 1906.26C1821 1895.07 1830.07 1886 1841.26 1886L2646.74 1886C2657.93 1886 2667 1895.07 2667 1906.26L2667 2303.74C2667 2314.93 2657.93 2324 2646.74 2324L1841.26 2324C1830.07 2324 1821 2314.93 1821 2303.74Z" fill="#FFC000" fill-rule="evenodd"/><text fill="#FFFFFF" font-family="Roboto Black,Roboto Black_MSFontService,sans-serif" font-weight="900" font-size="110" transform="matrix(1 0 0 1 2120.01 2089)">LE04</text><text fill="#FFFFFF" font-family="Roboto,Roboto_MSFontService,sans-serif" font-weight="400" font-size="92" transform="matrix(1 0 0 1 2057.29 2203)">Structure</text><text fill="#FFFFFF" font-family="Roboto,Roboto_MSFontService,sans-serif" font-weight="400" font-size="55" transform="matrix(1 0 0 1 2147.24 2308)">1.5 </text><text fill="#FFFFFF" font-family="Roboto,Roboto_MSFontService,sans-serif" font-weight="400" font-size="55" transform="matrix(1 0 0 1 2237.19 2308)">-</text><text fill="#FFFFFF" font-family="Roboto,Roboto_MSFontService,sans-serif" font-weight="400" font-size="55" transform="matrix(1 0 0 1 2265.83 2308)">2 h</text><g clip-path="url(#clip3)"><g clip-path="url(#clip4)"><g><path d="M761.602 163.732C737.771 163.732 715.272 173.021 698.242 189.887 698.194 189.926 698.141 189.98 698.096 190.026 692.934 195.222 687.3 200.874 682.065 206.116 673.759 214.435 660.781 216.081 650.789 209.89 634.74 199.938 624.024 182.157 624.024 161.921L624.024 25.4774C624.024 11.4051 612.62 0 598.547 0L25.4774 0C11.4051 0 0 11.4051 0 25.4774L0 161.921C0 182.157 10.7151 199.938 26.7646 209.89 36.7565 216.081 49.734 214.435 58.0408 206.116 63.2756 200.874 68.9085 195.222 74.0704 190.026 74.1168 189.98 74.1633 189.926 74.2163 189.887 91.2478 173.021 113.746 163.732 137.572 163.732 196.156 163.732 243.967 210.627 245.526 268.853 245.579 269.828 245.606 270.805 245.606 271.787L245.606 324.949C245.606 325.933 245.579 326.908 245.526 327.883 243.967 386.109 196.156 433.004 137.572 433.004 113.753 433.004 91.2478 423.722 74.2163 406.856 74.1633 406.81 74.1168 406.763 74.0704 406.71 68.9085 401.521 63.2756 395.869 58.0408 390.62 49.7607 382.335 36.8361 380.669 26.8508 386.799 23.1354 389.075 19.6852 391.789 16.5935 394.894 6.53524 404.913 0.749726 417.963 0.0663475 431.968 0.0464433 432.911 0 433.847 0 434.788L0 598.547C0 612.62 11.4051 624.024 25.4774 624.024L189.209 624.024C201.238 624.024 224.752 630.01 237.358 650.544 243.515 660.569 241.942 673.52 233.637 681.841 228.455 687.021 222.868 692.615 217.706 697.79 200.502 715.028 191.028 737.891 191.028 762.173 191.028 822.264 239.794 869.63 298.504 869.63L352.265 869.63C411.833 869.63 460.292 821.157 460.292 761.55 460.292 737.519 450.958 715.028 433.993 698.194 428.804 692.973 423.138 687.293 417.883 682.033 409.584 673.719 407.952 660.761 414.141 650.782 424.094 634.733 441.867 624.031 462.103 624.031L598.547 624.031C612.62 624.031 624.024 612.62 624.024 598.553L624.024 434.788C624.024 419.714 629.891 405.575 640.618 394.894 643.71 391.796 647.166 389.081 650.876 386.799 660.868 380.669 673.785 382.335 682.065 390.627 687.3 395.869 692.934 401.521 698.096 406.71 698.148 406.763 698.194 406.81 698.242 406.856 715.272 423.722 737.778 433.004 761.602 433.004 821.17 433.004 869.63 384.531 869.63 324.949L869.63 271.793C869.63 212.207 821.17 163.732 761.602 163.732Z" fill="#FFC000" transform="matrix(1.83697e-16 1 -1.00079 1.83842e-16 2559.93 -35.63)"/></g></g></g><path d="M1841 171.257C1841 160.069 1850.07 151 1861.26 151L2665.74 151C2676.93 151 2686 160.069 2686 171.257L2686 568.743C2686 579.93 2676.93 589 2665.74 589L1861.26 589C1850.07 589 1841 579.93 1841 568.743Z" fill="#FFC000" fill-rule="evenodd"/><text fill="#FFFFFF" font-family="Roboto Black,Roboto Black_MSFontService,sans-serif" font-weight="900" font-size="110" transform="matrix(1 0 0 1 2139.33 354)">LE03</text><text fill="#FFFFFF" font-family="Roboto,Roboto_MSFontService,sans-serif" font-weight="400" font-size="92" transform="matrix(1 0 0 1 2073.44 468)">Didactics</text><text fill="#FFFFFF" font-family="Roboto,Roboto_MSFontService,sans-serif" font-weight="400" font-size="55" transform="matrix(1 0 0 1 2189.17 205)">4 </text><text fill="#FFFFFF" font-family="Roboto,Roboto_MSFontService,sans-serif" font-weight="400" font-size="55" transform="matrix(1 0 0 1 2233.86 205)">-</text><text fill="#FFFFFF" font-family="Roboto,Roboto_MSFontService,sans-serif" font-weight="400" font-size="55" transform="matrix(1 0 0 1 2262.5 205)">6 h</text><path d="M1069 836.095C1069 824.445 1078.44 815 1090.09 815L1572.91 815C1584.56 815 1594 824.445 1594 836.095L1594 1561.91C1594 1573.56 1584.56 1583 1572.91 1583L1090.09 1583C1078.44 1583 1069 1573.56 1069 1561.91Z" fill="#7F7F7F" fill-rule="evenodd"/><text fill="#FFFFFF" font-family="Roboto Black,Roboto Black_MSFontService,sans-serif" font-weight="900" font-size="110" transform="matrix(1 0 0 1 1201.66 1183)">LU01</text><text fill="#FFFFFF" font-family="Roboto,Roboto_MSFontService,sans-serif" font-weight="400" font-size="92" transform="matrix(1 0 0 1 1209.96 1297)">About</text><g clip-path="url(#clip5)"><g clip-path="url(#clip6)"><g><path d="M762.205 163.862C738.355 163.862 715.839 173.158 698.795 190.037 698.747 190.076 698.694 190.131 698.648 190.177 693.483 195.376 687.844 201.033 682.605 206.279 674.293 214.605 661.305 216.252 651.304 210.056 635.243 200.097 624.518 182.301 624.518 162.049L624.518 25.4976C624.518 11.4142 613.106 0 599.021 0L25.4976 0C11.4142 0 0 11.4142 0 25.4976L0 162.049C0 182.301 10.7236 200.097 26.7858 210.056 36.7856 216.252 49.7734 214.605 58.0868 206.279 63.3257 201.033 68.9631 195.376 74.1291 190.177 74.1755 190.131 74.222 190.076 74.2751 190.037 91.3201 173.158 113.836 163.862 137.681 163.862 196.311 163.862 244.16 210.794 245.721 269.066 245.773 270.042 245.8 271.019 245.8 272.002L245.8 325.207C245.8 326.191 245.773 327.167 245.721 328.142 244.16 386.415 196.311 433.347 137.681 433.347 113.843 433.347 91.3201 424.058 74.2751 407.178 74.222 407.132 74.1755 407.085 74.1291 407.032 68.9631 401.839 63.3257 396.182 58.0868 390.929 49.8001 382.638 36.8653 380.97 26.8721 387.105 23.1537 389.383 19.7008 392.099 16.6067 395.206 6.54041 405.234 0.75032 418.294 0.0664001 432.31 0.0464801 433.254 0 434.19 0 435.132L0 599.021C0 613.106 11.4142 624.518 25.4976 624.518L189.359 624.518C201.397 624.518 224.93 630.509 237.546 651.06 243.708 661.092 242.134 674.053 233.822 682.381 228.635 687.565 223.045 693.163 217.879 698.342 200.661 715.594 191.179 738.476 191.179 762.777 191.179 822.915 239.984 870.319 298.74 870.319L352.544 870.319C412.159 870.319 460.657 821.807 460.657 762.153 460.657 738.103 451.315 715.594 434.337 698.747 429.144 693.522 423.473 687.837 418.214 682.573 409.908 674.252 408.275 661.284 414.469 651.298 424.43 635.236 442.217 624.525 462.469 624.525L599.021 624.525C613.106 624.525 624.518 613.106 624.518 599.027L624.518 435.132C624.518 420.046 630.39 405.897 641.126 395.206 644.219 392.106 647.679 389.389 651.391 387.105 661.391 380.97 674.319 382.638 682.605 390.936 687.844 396.182 693.483 401.839 698.648 407.032 698.701 407.085 698.747 407.132 698.795 407.178 715.839 424.058 738.362 433.347 762.205 433.347 821.821 433.347 870.319 384.836 870.319 325.207L870.319 272.009C870.319 212.375 821.821 163.862 762.205 163.862Z" fill="#7F7F7F" transform="matrix(1.00208 -1.2272e-16 1.22465e-16 1 968.87 911.069)"/></g></g></g><text fill="#FFFFFF" font-family="Roboto,Roboto_MSFontService,sans-serif" font-weight="400" font-size="55" transform="matrix(1 0 0 1 1271.13 1569)">0.5 h</text><g clip-path="url(#clip7)"><g clip-path="url(#clip8)"><g><path d="M761.603 163.732C737.771 163.732 715.273 173.021 698.242 189.887 698.195 189.926 698.142 189.98 698.096 190.026 692.935 195.222 687.301 200.875 682.066 206.116 673.76 214.435 660.782 216.081 650.79 209.89 634.741 199.939 624.025 182.157 624.025 161.921L624.025 25.4775C624.025 11.4051 612.621 0 598.547 0L25.4775 0C11.4051 0 0 11.4051 0 25.4775L0 161.921C0 182.157 10.7151 199.939 26.7646 209.89 36.7565 216.081 49.7341 214.435 58.0409 206.116 63.2757 200.875 68.9086 195.222 74.0705 190.026 74.1168 189.98 74.1634 189.926 74.2164 189.887 91.2479 173.021 113.746 163.732 137.572 163.732 196.156 163.732 243.967 210.627 245.526 268.854 245.579 269.828 245.606 270.805 245.606 271.787L245.606 324.95C245.606 325.933 245.579 326.908 245.526 327.883 243.967 386.109 196.156 433.005 137.572 433.005 113.753 433.005 91.2479 423.723 74.2164 406.857 74.1634 406.811 74.1168 406.763 74.0705 406.71 68.9086 401.522 63.2757 395.869 58.0409 390.621 49.7607 382.335 36.8362 380.669 26.8509 386.799 23.1354 389.075 19.6853 391.789 16.5935 394.894 6.53524 404.913 0.749727 417.963 0.0663476 431.969 0.0464434 432.911 0 433.847 0 434.788L0 598.547C0 612.621 11.4051 624.025 25.4775 624.025L189.209 624.025C201.238 624.025 224.752 630.01 237.358 650.545 243.515 660.57 241.943 673.521 233.637 681.842 228.455 687.022 222.868 692.615 217.707 697.791 200.503 715.029 191.028 737.892 191.028 762.174 191.028 822.265 239.794 869.631 298.504 869.631L352.265 869.631C411.833 869.631 460.293 821.158 460.293 761.55 460.293 737.52 450.958 715.029 433.993 698.195 428.805 692.974 423.138 687.294 417.883 682.034 409.584 673.719 407.952 660.762 414.141 650.783 424.095 634.734 441.868 624.032 462.104 624.032L598.547 624.032C612.621 624.032 624.025 612.621 624.025 598.554L624.025 434.788C624.025 419.714 629.891 405.576 640.619 394.894 643.71 391.796 647.167 389.082 650.876 386.799 660.869 380.669 673.786 382.335 682.066 390.627 687.301 395.869 692.935 401.522 698.096 406.71 698.149 406.763 698.195 406.811 698.242 406.857 715.273 423.723 737.778 433.005 761.603 433.005 821.171 433.005 869.631 384.531 869.631 324.95L869.631 271.794C869.631 212.207 821.171 163.732 761.603 163.732Z" fill="#FFC000" transform="matrix(-1 0 0 -1.00079 3518.63 1504.93)"/></g></g></g><path d="M2893 836.095C2893 824.445 2902.44 815 2914.09 815L3396.91 815C3408.56 815 3418 824.445 3418 836.095L3418 1561.91C3418 1573.56 3408.56 1583 3396.91 1583L2914.09 1583C2902.44 1583 2893 1573.56 2893 1561.91Z" fill="#FFC000" fill-rule="evenodd"/><text fill="#FFFFFF" font-family="Roboto Black,Roboto Black_MSFontService,sans-serif" font-weight="900" font-size="110" transform="matrix(1 0 0 1 3025.51 1089)">LU05</text><text fill="#FFFFFF" font-family="Roboto,Roboto_MSFontService,sans-serif" font-weight="400" font-size="92" transform="matrix(1 0 0 1 2953.32 1203)">Scenarios </text><text fill="#FFFFFF" font-family="Roboto,Roboto_MSFontService,sans-serif" font-weight="400" font-size="92" transform="matrix(1 0 0 1 3127.19 1313)">&amp; </text><text fill="#FFFFFF" font-family="Roboto,Roboto_MSFontService,sans-serif" font-weight="400" font-size="92" transform="matrix(1 0 0 1 2959.9 1423)">E</text><text fill="#FFFFFF" font-family="Roboto,Roboto_MSFontService,sans-serif" font-weight="400" font-size="92" transform="matrix(1 0 0 1 3012.03 1423)">xercises</text><text fill="#FFFFFF" font-family="Roboto,Roboto_MSFontService,sans-serif" font-weight="400" font-size="55" transform="matrix(1 0 0 1 3080.94 1570)">3 </text><text fill="#FFFFFF" font-family="Roboto,Roboto_MSFontService,sans-serif" font-weight="400" font-size="55" transform="matrix(1 0 0 1 3125.63 1570)">-</text><text fill="#FFFFFF" font-family="Roboto,Roboto_MSFontService,sans-serif" font-weight="400" font-size="55" transform="matrix(1 0 0 1 3154.28 1570)">4 h</text></g></svg>