<?xml version="1.0" encoding="UTF-8" standalone="no"?>
<svg
   width="3183"
   height="1884"
   xml:space="preserve"
   overflow="hidden"
   version="1.1"
   id="svg42"
   sodipodi:docname="t3-learning-units.svg"
   inkscape:version="1.4 (1:1.4+202410151213+e7c3feb100)"
   inkscape:export-filename="t3-learning-units.png"
   inkscape:export-xdpi="96"
   inkscape:export-ydpi="96"
   xmlns:inkscape="http://www.inkscape.org/namespaces/inkscape"
   xmlns:sodipodi="http://sodipodi.sourceforge.net/DTD/sodipodi-0.dtd"
   xmlns="http://www.w3.org/2000/svg"
   xmlns:svg="http://www.w3.org/2000/svg"><sodipodi:namedview
     id="namedview42"
     pagecolor="#ffffff"
     bordercolor="#000000"
     borderopacity="0.25"
     inkscape:showpageshadow="2"
     inkscape:pageopacity="0.0"
     inkscape:pagecheckerboard="0"
     inkscape:deskcolor="#d1d1d1"
     inkscape:zoom="0.35972353"
     inkscape:cx="1590.11"
     inkscape:cy="1163.3935"
     inkscape:window-width="1850"
     inkscape:window-height="1136"
     inkscape:window-x="0"
     inkscape:window-y="0"
     inkscape:window-maximized="1"
     inkscape:current-layer="g42" /><defs
     id="defs11"><clipPath
       id="clip0"><rect
         x="652"
         y="292"
         width="3183"
         height="1884"
         id="rect1" /></clipPath><clipPath
       id="clip1"><rect
         x="1648"
         y="747"
         width="473"
         height="349"
         id="rect2" /></clipPath><clipPath
       id="clip2"><rect
         x="1648"
         y="747"
         width="473"
         height="349"
         id="rect3" /></clipPath><clipPath
       id="clip3"><rect
         x="1656"
         y="1372"
         width="473"
         height="350"
         id="rect4" /></clipPath><clipPath
       id="clip4"><rect
         x="1656"
         y="1372"
         width="473"
         height="350"
         id="rect5" /></clipPath><clipPath
       id="clip5"><rect
         x="2779"
         y="747"
         width="473"
         height="349"
         id="rect6" /></clipPath><clipPath
       id="clip6"><rect
         x="2779"
         y="747"
         width="473"
         height="349"
         id="rect7" /></clipPath><clipPath
       id="clip7"><rect
         x="2798"
         y="1372"
         width="473"
         height="350"
         id="rect8" /></clipPath><clipPath
       id="clip8"><rect
         x="2798"
         y="1372"
         width="473"
         height="350"
         id="rect9" /></clipPath><clipPath
       id="clip9"><rect
         x="1167"
         y="997"
         width="349"
         height="473"
         id="rect10" /></clipPath><clipPath
       id="clip10"><rect
         x="1167"
         y="997"
         width="349"
         height="473"
         id="rect11" /></clipPath></defs><g
     clip-path="url(#clip0)"
     transform="translate(-652 -292)"
     id="g42"><path
       d="M1269 872.457C1269 860.055 1279.05 850 1291.46 850L3631.54 850C3643.95 850 3654 860.055 3654 872.457L3654 1595.54C3654 1607.95 3643.95 1618 3631.54 1618L1291.46 1618C1279.05 1618 1269 1607.95 1269 1595.54Z"
       fill="#404040"
       fill-rule="evenodd"
       id="path11" /><text
       fill="#ffffff"
       font-family="'Roboto Black', 'Roboto Black_MSFontService', sans-serif"
       font-weight="900"
       font-size="110px"
       transform="translate(1735.32,1273)"
       id="text11">LU02</text><text
       fill="#ffffff"
       font-family="Roboto, Roboto_MSFontService, sans-serif"
       font-weight="400"
       font-size="92px"
       id="text12"
       x="2018.0293"
       y="1273">Foundation Level Curriculum</text><g
       clip-path="url(#clip1)"
       id="g14"><g
         clip-path="url(#clip2)"
         id="g13"><g
           id="g12"><path
             d="M761.602 163.732C737.771 163.732 715.272 173.021 698.242 189.887 698.194 189.926 698.141 189.98 698.096 190.026 692.934 195.222 687.3 200.874 682.065 206.116 673.759 214.435 660.781 216.081 650.789 209.89 634.74 199.938 624.024 182.157 624.024 161.921L624.024 25.4774C624.024 11.4051 612.62 0 598.547 0L25.4774 0C11.4051 0 0 11.4051 0 25.4774L0 161.921C0 182.157 10.7151 199.938 26.7646 209.89 36.7565 216.081 49.734 214.435 58.0408 206.116 63.2756 200.874 68.9085 195.222 74.0704 190.026 74.1168 189.98 74.1633 189.926 74.2163 189.887 91.2478 173.021 113.746 163.732 137.572 163.732 196.156 163.732 243.967 210.627 245.526 268.853 245.579 269.828 245.606 270.805 245.606 271.787L245.606 324.949C245.606 325.933 245.579 326.908 245.526 327.883 243.967 386.109 196.156 433.004 137.572 433.004 113.753 433.004 91.2478 423.722 74.2163 406.856 74.1633 406.81 74.1168 406.763 74.0704 406.71 68.9085 401.521 63.2756 395.869 58.0408 390.62 49.7607 382.335 36.8361 380.669 26.8508 386.799 23.1354 389.075 19.6852 391.789 16.5935 394.894 6.53524 404.913 0.749726 417.963 0.0663475 431.968 0.0464433 432.911 0 433.847 0 434.788L0 598.547C0 612.62 11.4051 624.024 25.4774 624.024L189.209 624.024C201.238 624.024 224.752 630.01 237.358 650.544 243.515 660.569 241.942 673.52 233.637 681.841 228.455 687.021 222.868 692.615 217.706 697.79 200.502 715.028 191.028 737.891 191.028 762.173 191.028 822.264 239.794 869.63 298.504 869.63L352.265 869.63C411.833 869.63 460.292 821.157 460.292 761.55 460.292 737.519 450.958 715.028 433.993 698.194 428.804 692.973 423.138 687.293 417.883 682.033 409.584 673.719 407.952 660.761 414.141 650.782 424.094 634.733 441.867 624.031 462.103 624.031L598.547 624.031C612.62 624.031 624.024 612.62 624.024 598.553L624.024 434.788C624.024 419.714 629.891 405.575 640.618 394.894 643.71 391.796 647.166 389.081 650.876 386.799 660.868 380.669 673.785 382.335 682.065 390.627 687.3 395.869 692.934 401.521 698.096 406.71 698.148 406.763 698.194 406.81 698.242 406.856 715.272 423.722 737.778 433.004 761.602 433.004 821.17 433.004 869.63 384.531 869.63 324.949L869.63 271.793C869.63 212.207 821.17 163.732 761.602 163.732Z"
             fill="#FFC000"
             transform="matrix(1.83697e-16 1 -1.00079 1.83842e-16 2181.93 225.37)"
             id="path12" /></g></g></g><path
       d="M1462 432.257C1462 421.07 1471.07 412 1482.26 412L2287.74 412C2298.93 412 2308 421.07 2308 432.257L2308 829.743C2308 840.931 2298.93 850 2287.74 850L1482.26 850C1471.07 850 1462 840.931 1462 829.743Z"
       fill="#FFC000"
       fill-rule="evenodd"
       id="path14" /><text
       fill="#ffffff"
       font-family="'Roboto Black', 'Roboto Black_MSFontService', sans-serif"
       font-weight="900"
       font-size="110px"
       transform="translate(1761.01,598)"
       id="text14">LU03</text><text
       fill="#FFFFFF"
       font-family="Roboto,Roboto_MSFontService,sans-serif"
       font-weight="400"
       font-size="92"
       transform="matrix(1 0 0 1 1695.12 712)"
       id="text15">Didactics</text><g
       clip-path="url(#clip3)"
       id="g17"><g
         clip-path="url(#clip4)"
         id="g16"><g
           id="g15"><path
             d="M762.205 163.862C738.355 163.862 715.839 173.158 698.795 190.037 698.747 190.076 698.694 190.131 698.648 190.177 693.483 195.376 687.844 201.033 682.605 206.279 674.293 214.605 661.305 216.252 651.304 210.056 635.243 200.097 624.518 182.301 624.518 162.049L624.518 25.4976C624.518 11.4142 613.106 0 599.021 0L25.4976 0C11.4142 0 0 11.4142 0 25.4976L0 162.049C0 182.301 10.7236 200.097 26.7858 210.056 36.7856 216.252 49.7734 214.605 58.0868 206.279 63.3257 201.033 68.9631 195.376 74.1291 190.177 74.1755 190.131 74.222 190.076 74.2751 190.037 91.3201 173.158 113.836 163.862 137.681 163.862 196.311 163.862 244.16 210.794 245.721 269.066 245.773 270.042 245.8 271.019 245.8 272.002L245.8 325.207C245.8 326.191 245.773 327.167 245.721 328.142 244.16 386.415 196.311 433.347 137.681 433.347 113.843 433.347 91.3201 424.058 74.2751 407.178 74.222 407.132 74.1755 407.085 74.1291 407.032 68.9631 401.839 63.3257 396.182 58.0868 390.929 49.8001 382.638 36.8653 380.97 26.8721 387.105 23.1537 389.383 19.7008 392.099 16.6067 395.206 6.54041 405.234 0.75032 418.294 0.0664001 432.31 0.0464801 433.254 0 434.19 0 435.132L0 599.021C0 613.106 11.4142 624.518 25.4976 624.518L189.359 624.518C201.397 624.518 224.93 630.509 237.546 651.06 243.708 661.092 242.134 674.053 233.822 682.381 228.635 687.565 223.045 693.163 217.879 698.342 200.661 715.594 191.179 738.476 191.179 762.777 191.179 822.915 239.984 870.319 298.74 870.319L352.544 870.319C412.159 870.319 460.657 821.807 460.657 762.153 460.657 738.103 451.315 715.594 434.337 698.747 429.144 693.522 423.473 687.837 418.214 682.573 409.908 674.252 408.275 661.284 414.469 651.298 424.43 635.236 442.217 624.525 462.469 624.525L599.021 624.525C613.106 624.525 624.518 613.106 624.518 599.027L624.518 435.132C624.518 420.046 630.39 405.897 641.126 395.206 644.219 392.106 647.679 389.389 651.391 387.105 661.391 380.97 674.319 382.638 682.605 390.936 687.844 396.182 693.483 401.839 698.648 407.032 698.701 407.085 698.747 407.132 698.795 407.178 715.839 424.058 738.362 433.347 762.205 433.347 821.821 433.347 870.319 384.836 870.319 325.207L870.319 272.009C870.319 212.375 821.821 163.862 762.205 163.862Z"
             fill="#FFC000"
             transform="matrix(-6.13598e-17 -1.00208 1 -6.12323e-17 1596.07 2244.13)"
             id="path15" /></g></g></g><path
       d="M1470 1638.21C1470 1627.05 1479.05 1618 1490.21 1618L2295.79 1618C2306.95 1618 2316 1627.05 2316 1638.21L2316 2034.79C2316 2045.95 2306.95 2055 2295.79 2055L1490.21 2055C1479.05 2055 1470 2045.95 1470 2034.79Z"
       fill="#FFC000"
       fill-rule="evenodd"
       id="path17" /><text
       fill="#ffffff"
       font-family="'Roboto Black', 'Roboto Black_MSFontService', sans-serif"
       font-weight="900"
       font-size="110px"
       transform="translate(1769.25,1753)"
       id="text17">LU04</text><text
       fill="#FFFFFF"
       font-family="Roboto,Roboto_MSFontService,sans-serif"
       font-weight="400"
       font-size="92"
       transform="matrix(1 0 0 1 1706.53 1867)"
       id="text18">Structure</text><g
       clip-path="url(#clip5)"
       id="g20"><g
         clip-path="url(#clip6)"
         id="g19"><g
           id="g18"><path
             d="M761.602 163.732C737.771 163.732 715.272 173.021 698.242 189.887 698.194 189.926 698.141 189.98 698.096 190.026 692.934 195.222 687.3 200.874 682.065 206.116 673.759 214.435 660.781 216.081 650.789 209.89 634.74 199.938 624.024 182.157 624.024 161.921L624.024 25.4774C624.024 11.4051 612.62 0 598.547 0L25.4774 0C11.4051 0 0 11.4051 0 25.4774L0 161.921C0 182.157 10.7151 199.938 26.7646 209.89 36.7565 216.081 49.734 214.435 58.0408 206.116 63.2756 200.874 68.9085 195.222 74.0704 190.026 74.1168 189.98 74.1633 189.926 74.2163 189.887 91.2478 173.021 113.746 163.732 137.572 163.732 196.156 163.732 243.967 210.627 245.526 268.853 245.579 269.828 245.606 270.805 245.606 271.787L245.606 324.949C245.606 325.933 245.579 326.908 245.526 327.883 243.967 386.109 196.156 433.004 137.572 433.004 113.753 433.004 91.2478 423.722 74.2163 406.856 74.1633 406.81 74.1168 406.763 74.0704 406.71 68.9085 401.521 63.2756 395.869 58.0408 390.62 49.7607 382.335 36.8361 380.669 26.8508 386.799 23.1354 389.075 19.6852 391.789 16.5935 394.894 6.53524 404.913 0.749726 417.963 0.0663475 431.968 0.0464433 432.911 0 433.847 0 434.788L0 598.547C0 612.62 11.4051 624.024 25.4774 624.024L189.209 624.024C201.238 624.024 224.752 630.01 237.358 650.544 243.515 660.569 241.942 673.52 233.637 681.841 228.455 687.021 222.868 692.615 217.706 697.79 200.502 715.028 191.028 737.891 191.028 762.173 191.028 822.264 239.794 869.63 298.504 869.63L352.265 869.63C411.833 869.63 460.292 821.157 460.292 761.55 460.292 737.519 450.958 715.028 433.993 698.194 428.804 692.973 423.138 687.293 417.883 682.033 409.584 673.719 407.952 660.761 414.141 650.782 424.094 634.733 441.867 624.031 462.103 624.031L598.547 624.031C612.62 624.031 624.024 612.62 624.024 598.553L624.024 434.788C624.024 419.714 629.891 405.575 640.618 394.894 643.71 391.796 647.166 389.081 650.876 386.799 660.868 380.669 673.785 382.335 682.065 390.627 687.3 395.869 692.934 401.521 698.096 406.71 698.148 406.763 698.194 406.81 698.242 406.856 715.272 423.722 737.778 433.004 761.602 433.004 821.17 433.004 869.63 384.531 869.63 324.949L869.63 271.793C869.63 212.207 821.17 163.732 761.602 163.732Z"
             fill="#FFC000"
             transform="matrix(1.83697e-16 1 -1.00079 1.83842e-16 3312.93 225.37)"
             id="path18" /></g></g></g><path
       d="M2593 432.257C2593 421.07 2602.07 412 2613.26 412L3418.74 412C3429.93 412 3439 421.07 3439 432.257L3439 829.743C3439 840.931 3429.93 850 3418.74 850L2613.26 850C2602.07 850 2593 840.931 2593 829.743Z"
       fill="#FFC000"
       fill-rule="evenodd"
       id="path20" /><text
       fill="#ffffff"
       font-family="'Roboto Black', 'Roboto Black_MSFontService', sans-serif"
       font-weight="900"
       font-size="110px"
       transform="translate(2892.44,589)"
       id="text20">LU05</text><text
       fill="#FFFFFF"
       font-family="Roboto,Roboto_MSFontService,sans-serif"
       font-weight="400"
       font-size="92"
       transform="matrix(1 0 0 1 2774.41 703)"
       id="text21">Scenarios &amp; </text><text
       fill="#FFFFFF"
       font-family="Roboto,Roboto_MSFontService,sans-serif"
       font-weight="400"
       font-size="92"
       transform="matrix(1 0 0 1 2820.82 813)"
       id="text22">Exercises</text><g
       clip-path="url(#clip7)"
       id="g24"><g
         clip-path="url(#clip8)"
         id="g23"><g
           id="g22"><path
             d="M762.205 163.862C738.355 163.862 715.839 173.158 698.795 190.037 698.747 190.076 698.694 190.131 698.648 190.177 693.483 195.376 687.844 201.033 682.605 206.279 674.293 214.605 661.305 216.252 651.304 210.056 635.243 200.097 624.518 182.301 624.518 162.049L624.518 25.4976C624.518 11.4142 613.106 0 599.021 0L25.4976 0C11.4142 0 0 11.4142 0 25.4976L0 162.049C0 182.301 10.7236 200.097 26.7858 210.056 36.7856 216.252 49.7734 214.605 58.0868 206.279 63.3257 201.033 68.9631 195.376 74.1291 190.177 74.1755 190.131 74.222 190.076 74.2751 190.037 91.3201 173.158 113.836 163.862 137.681 163.862 196.311 163.862 244.16 210.794 245.721 269.066 245.773 270.042 245.8 271.019 245.8 272.002L245.8 325.207C245.8 326.191 245.773 327.167 245.721 328.142 244.16 386.415 196.311 433.347 137.681 433.347 113.843 433.347 91.3201 424.058 74.2751 407.178 74.222 407.132 74.1755 407.085 74.1291 407.032 68.9631 401.839 63.3257 396.182 58.0868 390.929 49.8001 382.638 36.8653 380.97 26.8721 387.105 23.1537 389.383 19.7008 392.099 16.6067 395.206 6.54041 405.234 0.75032 418.294 0.0664001 432.31 0.0464801 433.254 0 434.19 0 435.132L0 599.021C0 613.106 11.4142 624.518 25.4976 624.518L189.359 624.518C201.397 624.518 224.93 630.509 237.546 651.06 243.708 661.092 242.134 674.053 233.822 682.381 228.635 687.565 223.045 693.163 217.879 698.342 200.661 715.594 191.179 738.476 191.179 762.777 191.179 822.915 239.984 870.319 298.74 870.319L352.544 870.319C412.159 870.319 460.657 821.807 460.657 762.153 460.657 738.103 451.315 715.594 434.337 698.747 429.144 693.522 423.473 687.837 418.214 682.573 409.908 674.252 408.275 661.284 414.469 651.298 424.43 635.236 442.217 624.525 462.469 624.525L599.021 624.525C613.106 624.525 624.518 613.106 624.518 599.027L624.518 435.132C624.518 420.046 630.39 405.897 641.126 395.206 644.219 392.106 647.679 389.389 651.391 387.105 661.391 380.97 674.319 382.638 682.605 390.936 687.844 396.182 693.483 401.839 698.648 407.032 698.701 407.085 698.747 407.132 698.795 407.178 715.839 424.058 738.362 433.347 762.205 433.347 821.821 433.347 870.319 384.836 870.319 325.207L870.319 272.009C870.319 212.375 821.821 163.862 762.205 163.862Z"
             fill="#7F7F7F"
             transform="matrix(-6.13598e-17 -1.00208 1 -6.12323e-17 2738.07 2244.13)"
             id="path22" /></g></g></g><path
       d="M2612 1638.21C2612 1627.05 2621.05 1618 2632.21 1618L3437.79 1618C3448.95 1618 3458 1627.05 3458 1638.21L3458 2034.79C3458 2045.95 3448.95 2055 3437.79 2055L2632.21 2055C2621.05 2055 2612 2045.95 2612 2034.79Z"
       fill="#7F7F7F"
       fill-rule="evenodd"
       id="path24" /><text
       fill="#ffffff"
       font-family="'Roboto Black', 'Roboto Black_MSFontService', sans-serif"
       font-weight="900"
       font-size="110px"
       transform="translate(2910.91,1754)"
       id="text24">LU06</text><text
       fill="#FFFFFF"
       font-family="Roboto,Roboto_MSFontService,sans-serif"
       font-weight="400"
       font-size="83"
       transform="matrix(1 0 0 1 2832.72 1859)"
       id="text25">Logistics</text><text
       fill="#FFFFFF"
       font-family="Roboto,Roboto_MSFontService,sans-serif"
       font-weight="400"
       font-size="83"
       transform="matrix(1 0 0 1 3185.64 1859)"
       id="text26">&amp; </text><text
       fill="#FFFFFF"
       font-family="Roboto,Roboto_MSFontService,sans-serif"
       font-weight="400"
       font-size="83"
       transform="matrix(1 0 0 1 2834.44 1958)"
       id="text27">Operations</text><path
       d="M744 871.095C744 859.445 753.444 850 765.095 850L1247.91 850C1259.56 850 1269 859.445 1269 871.095L1269 1596.91C1269 1608.56 1259.56 1618 1247.91 1618L765.095 1618C753.444 1618 744 1608.56 744 1596.91Z"
       fill="#7F7F7F"
       fill-rule="evenodd"
       id="path27" /><text
       fill="#FFFFFF"
       font-family="Roboto Black,Roboto Black_MSFontService,sans-serif"
       font-weight="900"
       font-size="110"
       transform="matrix(1 0 0 1 876.684 1218)"
       id="text28">LU01</text><text
       fill="#FFFFFF"
       font-family="Roboto,Roboto_MSFontService,sans-serif"
       font-weight="400"
       font-size="92"
       transform="matrix(1 0 0 1 884.98 1332)"
       id="text29">About</text><g
       clip-path="url(#clip9)"
       id="g31"><g
         clip-path="url(#clip10)"
         id="g30"><g
           id="g29"><path
             d="M762.205 163.862C738.355 163.862 715.839 173.158 698.795 190.037 698.747 190.076 698.694 190.131 698.648 190.177 693.483 195.376 687.844 201.033 682.605 206.279 674.293 214.605 661.305 216.252 651.304 210.056 635.243 200.097 624.518 182.301 624.518 162.049L624.518 25.4976C624.518 11.4142 613.106 0 599.021 0L25.4976 0C11.4142 0 0 11.4142 0 25.4976L0 162.049C0 182.301 10.7236 200.097 26.7858 210.056 36.7856 216.252 49.7734 214.605 58.0868 206.279 63.3257 201.033 68.9631 195.376 74.1291 190.177 74.1755 190.131 74.222 190.076 74.2751 190.037 91.3201 173.158 113.836 163.862 137.681 163.862 196.311 163.862 244.16 210.794 245.721 269.066 245.773 270.042 245.8 271.019 245.8 272.002L245.8 325.207C245.8 326.191 245.773 327.167 245.721 328.142 244.16 386.415 196.311 433.347 137.681 433.347 113.843 433.347 91.3201 424.058 74.2751 407.178 74.222 407.132 74.1755 407.085 74.1291 407.032 68.9631 401.839 63.3257 396.182 58.0868 390.929 49.8001 382.638 36.8653 380.97 26.8721 387.105 23.1537 389.383 19.7008 392.099 16.6067 395.206 6.54041 405.234 0.75032 418.294 0.0664001 432.31 0.0464801 433.254 0 434.19 0 435.132L0 599.021C0 613.106 11.4142 624.518 25.4976 624.518L189.359 624.518C201.397 624.518 224.93 630.509 237.546 651.06 243.708 661.092 242.134 674.053 233.822 682.381 228.635 687.565 223.045 693.163 217.879 698.342 200.661 715.594 191.179 738.476 191.179 762.777 191.179 822.915 239.984 870.319 298.74 870.319L352.544 870.319C412.159 870.319 460.657 821.807 460.657 762.153 460.657 738.103 451.315 715.594 434.337 698.747 429.144 693.522 423.473 687.837 418.214 682.573 409.908 674.252 408.275 661.284 414.469 651.298 424.43 635.236 442.217 624.525 462.469 624.525L599.021 624.525C613.106 624.525 624.518 613.106 624.518 599.027L624.518 435.132C624.518 420.046 630.39 405.897 641.126 395.206 644.219 392.106 647.679 389.389 651.391 387.105 661.391 380.97 674.319 382.638 682.605 390.936 687.844 396.182 693.483 401.839 698.648 407.032 698.701 407.085 698.747 407.132 698.795 407.178 715.839 424.058 738.362 433.347 762.205 433.347 821.821 433.347 870.319 384.836 870.319 325.207L870.319 272.009C870.319 212.375 821.821 163.862 762.205 163.862Z"
             fill="#7F7F7F"
             transform="matrix(1.00208 -1.22719e-16 1.22465e-16 1 643.871 937.069)"
             id="path29" /></g></g></g><text
       fill="#FFFFFF"
       font-family="Roboto,Roboto_MSFontService,sans-serif"
       font-weight="400"
       font-size="55"
       transform="matrix(1 0 0 1 1796.47 2041)"
       id="text31">1.5 </text><text
       fill="#FFFFFF"
       font-family="Roboto,Roboto_MSFontService,sans-serif"
       font-weight="400"
       font-size="55"
       transform="matrix(1 0 0 1 1886.42 2041)"
       id="text32">-</text><text
       fill="#FFFFFF"
       font-family="Roboto,Roboto_MSFontService,sans-serif"
       font-weight="400"
       font-size="55"
       transform="matrix(1 0 0 1 1915.07 2041)"
       id="text33">2 h</text><text
       fill="#FFFFFF"
       font-family="Roboto,Roboto_MSFontService,sans-serif"
       font-weight="400"
       font-size="55"
       transform="matrix(1 0 0 1 2942.02 464)"
       id="text34">3 </text><text
       fill="#FFFFFF"
       font-family="Roboto,Roboto_MSFontService,sans-serif"
       font-weight="400"
       font-size="55"
       transform="matrix(1 0 0 1 2986.71 464)"
       id="text35">-</text><text
       fill="#FFFFFF"
       font-family="Roboto,Roboto_MSFontService,sans-serif"
       font-weight="400"
       font-size="55"
       transform="matrix(1 0 0 1 3015.35 464)"
       id="text36">4 h</text><text
       fill="#ffffff"
       font-family="Roboto, Roboto_MSFontService, sans-serif"
       font-weight="400"
       font-size="55px"
       transform="translate(1810.85,464)"
       id="text37">3 </text><text
       fill="#FFFFFF"
       font-family="Roboto,Roboto_MSFontService,sans-serif"
       font-weight="400"
       font-size="55"
       transform="matrix(1 0 0 1 1855.54 464)"
       id="text38">-</text><text
       fill="#FFFFFF"
       font-family="Roboto,Roboto_MSFontService,sans-serif"
       font-weight="400"
       font-size="55"
       transform="matrix(1 0 0 1 1884.19 464)"
       id="text39">6 h</text><text
       fill="#FFFFFF"
       font-family="Roboto,Roboto_MSFontService,sans-serif"
       font-weight="400"
       font-size="55"
       transform="matrix(1 0 0 1 2974.8 2041)"
       id="text40">0.5 h</text><text
       fill="#FFFFFF"
       font-family="Roboto,Roboto_MSFontService,sans-serif"
       font-weight="400"
       font-size="55"
       transform="matrix(1 0 0 1 946.152 1603)"
       id="text41">0.5 h</text><text
       fill="#FFFFFF"
       font-family="Roboto,Roboto_MSFontService,sans-serif"
       font-weight="400"
       font-size="55"
       transform="matrix(1 0 0 1 2410.33 1602)"
       id="text42">12 h</text></g></svg>
